<?xml version="1.0" encoding="UTF-8"?>
<!DOCTYPE svg  PUBLIC '-//W3C//DTD SVG 1.1//EN'  'http://www.w3.org/Graphics/SVG/1.1/DTD/svg11.dtd'>
<svg version="1.1" xmlns="http://www.w3.org/2000/svg">
<defs>
<font id="BritishRailLightNormal" horiz-adv-x="1296">
<font-face font-family="BritishRailLightNormal" font-weight="400" ascent="800" bbox="-10 -270 1453 779" cap-height="651" descent="-200" panose-1="0 0 4 0 0 0 0 0 0 0" underline-position="0" underline-thickness="0" unicode-range="U+0020-00FC" units-per-em="1000" x-height="500"/>
<missing-glyph/>
<glyph glyph-name="space" horiz-adv-x="199" unicode=" "/>
<glyph d="M108 651h106v-182l-27 -318h-53l-26 323v177zM108 97h106v-97h-106v97z" glyph-name="exclam" horiz-adv-x="256" unicode="!"/>
<glyph d="M0 750h1002v-1000h-1002v1000zM204 108h18v579h563v-341h-78l-83 108q-17 23 -29 29t-39 6h-189q-29 0 -38 -5t-24 -30l-50 -85q-7 -13 -7 -22q0 -10 9 -18.5t20 -8.5q19 0 41 38l42 73h105l-64 -148q0 -2 -1.5 -6t-2.5 -6q-9 -19 -11 -27q-7 -42 -7 -37l-19 -127h-156 q-21 0 -34 -19l-6 -9l-23 -38h229q28 0 46 20q14 16 20 52l22 149l2 -4l2 -6l8 -16l146 -301q11 -22 18 -26.5t32 -4.5h49l-182 375l75 128l56 -73q13 -18 36 -18h85v-429l-64 -64h-83l52 51h-69q-23 0 -34 -11l-40 -40h-387l62 64v126h-18v-117l-91 -92h616l75 76v852h-600 v-597zM601 651q-29 0 -50 -20.5t-21 -49.5t20.5 -50t48.5 -21q30 0 51 20t21 49q0 30 -20.5 51t-49.5 21z" glyph-name="numbersign" horiz-adv-x="1002" unicode="#"/>
<glyph d="M1156 548l-348 -800l-214 93l-41 -93l-414 180l348 799l159 -70l41 95zM1073 516l-351 152l-298 -684l352 -153zM440 136l-62 26l-9 -22l61 -27zM360 170l-61 27l-10 -23l62 -27zM595 597l-29 12q-9 -17 -27 -17q-8 0 -23 7l-14 -31l29 -12l-62 -142l40 -17zM862 456 l-39 17q1 6 1 12q0 17 -15 29t-35 12q-25 0 -25 -21q0 -13 25 -30q64 -44 64 -80q0 -27 -20 -45.5t-50 -18.5q-42 0 -75 27t-33 61q0 13 6 30l42 -19q-4 -11 -4 -16q0 -16 18 -29t40 -13q26 0 26 22q0 15 -37 42q-49 36 -49 66q0 26 19.5 45t46.5 19q39 0 69 -25t30 -59 q0 -11 -5 -26zM837 36l-10 -25l-63 28l11 25zM757 71l-10 -25l-65 28l11 25zM676 107l-11 -25l-64 27l11 26zM594 142l-11 -25l-63 28l11 25z" glyph-name="dollar" horiz-adv-x="1295" unicode="$"/>
<glyph d="M764 -13l13 21q16 26 32 26q6 0 22 -4q4 -1 9 -1q4 0 6 1l6 2q5 3 10 3q7 0 35 -20l65 -47q12 -11 15 -12q8 -6 11.5 -11t3.5 -17v-4q0 -9 8 -18q11 -12 11 -24q0 -15 -32.5 -57.5t-53.5 -58.5q-28 -21 -66 -21q-114 0 -252 167q-126 153 -210 335q-86 187 -86 306 q0 50 17.5 94.5t45.5 65.5q22 17 75 31q41 11 52 11q15 0 24 -12q5 -6 13 -40l24 -96q16 -64 16 -85q0 -36 -35 -36h-7l-13 1q-13 1 -12 1q-3 0 -5.5 -0.5t-7.5 -3.5l-3.5 -3t-6.5 -6q-26 -21 -26 -40q0 -11 5 -29q8 -28 34 -79l135 -260q32 -60 65 -85q24 -18 37 -18 q12 0 20 13z" glyph-name="percent" unicode="%"/>
<glyph d="M465 306h107q-6 -62 -14 -90q-13 -42 -51 -94q1 -2 8 -10q22 -25 46 -25q2 0 8 1h10l11 1v-90q-24 -2 -48 -2q-42 0 -58 6.5t-41 33.5q-3 4 -13 14q-64 -58 -158 -58q-107 0 -177.5 63.5t-70.5 159.5q0 85 64 136q17 13 57 37l-14 17q-44 53 -44 106q0 67 48.5 110 t124.5 43q78 0 130 -43.5t52 -108.5q0 -77 -61 -124q-25 -19 -71 -39l125 -146q17 24 23 50t7 52zM207 309l-11 -5q-25 -11 -42 -38.5t-17 -55.5q0 -48 39 -83t94 -35q49 0 83 27l10 8zM243 426q95 28 95 85q0 31 -20.5 51t-52.5 20q-29 0 -48.5 -19t-19.5 -48q0 -36 46 -89 z" glyph-name="ampersand" horiz-adv-x="601" unicode="&amp;"/>
<glyph d="M214 685h102q-61 -64 -96 -121q-76 -125 -76 -292q0 -95 24 -175q34 -113 132 -226l13 -15h-99q-94 100 -136.5 197.5t-42.5 213.5q0 242 179 418z" glyph-name="parenleft" horiz-adv-x="338" unicode="("/>
<glyph d="M123 685q178 -167 178 -418q0 -87 -21 -156q-37 -121 -140 -236l-17 -19h-99l12 15q22 26 61 77q96 137 96 323q0 166 -76 293q-32 53 -96 121h102z" glyph-name="parenright" horiz-adv-x="338" unicode=")"/>
<glyph d="M856 -245v232l93 67v234h-41l-25 -124q-3 -15 -8 -15q-1 0 -9 2l-683 147h-70q-29 0 -29 23q0 22 26 22h69l683 144q9 2 10 2q7 0 10 -15l26 -125h153q50 0 86.5 -36.5t36.5 -87.5q0 -52 -37 -89.5t-87 -37.5q-43 0 -43 32q0 10 9 21q10 8 17 8h18q25 0 43.5 19.5 t18.5 46.5q0 24 -15 41.5t-39 21.5h-88v-234l96 -67v-232h-221zM501 -245h-239l-19 288v127q0 34 28 34q27 0 27 -33v-103h7v118q0 32 29 32q28 0 28 -33v-117h7v118q0 35 29 35q28 0 28 -33v-120h8v120q0 29 27 29q25 0 26 -28l5 -156l32 42q14 19 30 19q33 0 33 -33 q0 -2 -3 -13zM815 557l131 -12q21 -2 21 -15v-8q0 -12 -18 -12h-619q-18 0 -18 15v6q0 11 17 13l130 13l25 166q3 22 31 22q24 0 48 -4q55 -9 77 -9q20 0 60 5.5t60 5.5h2q25 0 29 -29zM966 21q-24 0 -24 -25t24 -25t24 25t-24 25z" glyph-name="asterisk" horiz-adv-x="1295" unicode="*"/>
<glyph d="M761 761q49 -16 49 -55q0 -2 -5 -25l-69 -315h394q38 0 38 -31q0 -6 -1 -13l-23 -162h-40v111h-26v-111h-34v111h-27v-111h-34v111h-26v-111h-34v111h-27v-111h-35v111h-26v-111h-34v111h-27v-111h-34l61 -173q39 38 91 38q56 0 96 -48t40 -116q0 -49 -36.5 -85 t-85.5 -36q-89 0 -119 86l-85 245l-52 35l-52 -35l-83 -245q-13 -40 -45.5 -63.5t-72.5 -23.5q-49 0 -85.5 36t-36.5 84q0 71 38.5 118t96.5 47q50 0 90 -37l59 173h-34v111h-25v-111h-36v111h-26v-111h-34v111h-26v-111h-35v111h-27v-111h-34v111h-26v-111h-33v111h-28 v-111h-39l-23 159q-2 14 -2 17q0 30 39 30h394l-78 328q-2 10 -2 12q0 36 49 55l117 -332zM740 271h-27v-25l27 -77v102zM585 271h-26v-104l26 77v27zM957 -78q-18 46 -64 46q-30 0 -50 -21t-20 -52q0 -15 4 -25l9 -23q20 -51 66 -51q29 0 50 20.5t21 48.5q0 15 -8 36z M471 -137q7 17 7 33q0 31 -19.5 51.5t-48.5 20.5q-49 0 -67 -50l-11 -30q0 -2 -2 -7q-2 -14 -2 -15q0 -29 20.5 -49.5t48.5 -20.5q46 0 69 55z" glyph-name="plus" unicode="+"/>
<glyph d="M30 97h107v-72q0 -6 -1 -35t-19 -50q-22 -25 -72 -25h-10v23q32 1 45.5 12.5t13.5 41.5v8h-64v97z" glyph-name="comma" horiz-adv-x="167" unicode=","/>
<glyph d="M29 97h106v-97h-106v97z" glyph-name="period" horiz-adv-x="165" unicode="."/>
<glyph d="M249 700h47l-232 -854h-47z" glyph-name="slash" horiz-adv-x="314" unicode="/"/>
<glyph d="M306 658q126 0 200.5 -90t74.5 -243q0 -154 -73.5 -245.5t-197.5 -91.5q-135 0 -214 106q-62 83 -62 232q0 162 75 247t197 85zM305 553q-70 0 -109 -59.5t-39 -166.5q0 -110 39.5 -171t110.5 -61q70 0 109.5 60t39.5 166q0 110 -40 171t-111 61z" glyph-name="zero" horiz-adv-x="616" unicode="0"/>
<glyph d="M244 651v-651h-120v475h-110v87h15q63 0 86 17q20 15 25 72h104z" glyph-name="one" horiz-adv-x="305" unicode="1"/>
<glyph d="M30 413q1 63 16 109q21 66 80.5 102.5t146.5 36.5q109 0 173.5 -58.5t64.5 -156.5q0 -37 -12 -72q-14 -41 -41.5 -72.5t-93.5 -82.5l-35 -27l-120 -92h288v-100h-459l1 103l211 168q67 53 98 87q39 42 39 91q0 50 -31 79t-83 29q-118 0 -122 -144h-121z" glyph-name="two" horiz-adv-x="546" unicode="2"/>
<glyph d="M46 431q2 67 22 111q24 54 84 85t140 31q104 0 167 -52.5t63 -139.5q0 -97 -92 -124q53 -16 75 -39q34 -37 34 -106q0 -95 -68.5 -151t-184.5 -56q-120 0 -187 58.5t-68 164.5h121q9 -121 132 -121q61 0 96 27.5t35 74.5q0 53 -46 76q-29 14 -103 14h-31v93h21 q78 0 111 19t33 66q0 45 -30 71t-82 26q-118 0 -121 -128h-121z" glyph-name="three" horiz-adv-x="574" unicode="3"/>
<glyph d="M354 651h143v-429h78v-100h-78v-122h-120v122h-350v127zM377 528l-250 -306h250v306z" glyph-name="four" horiz-adv-x="600" unicode="4"/>
<glyph d="M82 651h414v-100h-311l-16 -148q13 13 39 34q39 24 102 24q98 0 156.5 -62.5t58.5 -165.5q0 -113 -66.5 -178.5t-181.5 -65.5q-104 0 -170.5 54t-66.5 139h117q8 -41 40.5 -66t78.5 -25q61 0 96 38.5t35 104.5q0 60 -34 97t-90 37q-83 0 -115 -68h-123z" glyph-name="five" horiz-adv-x="564" unicode="5"/>
<glyph d="M400 497q-16 70 -104 70q-47 0 -81.5 -29t-46.5 -75q-10 -38 -16 -102q56 83 165 83q97 0 157 -61.5t60 -159.5q0 -104 -67 -169.5t-173 -65.5q-109 0 -178 72q-82 85 -82 270q0 160 67.5 245.5t194.5 85.5q94 0 152.5 -43t69.5 -118zM295 351q-54 0 -90 -37t-36 -93 q0 -58 35 -95t89 -37q55 0 88.5 36t33.5 95t-33 95t-87 36z" glyph-name="six" horiz-adv-x="568" unicode="6"/>
<glyph d="M-5 651h463v-106l-238 -545h-131l240 544h-334v107z" glyph-name="seven" horiz-adv-x="477" unicode="7"/>
<glyph d="M425 347q49 -20 71 -44q39 -43 39 -109q0 -92 -69 -149t-182 -57q-115 0 -184 56t-69 150q0 117 111 153q-41 16 -61 39q-32 37 -32 89q0 83 65 134t171 51q107 0 170 -49.5t63 -134.5q0 -49 -23 -81t-70 -48zM284 565q-54 0 -85.5 -24.5t-31.5 -67.5q0 -89 118 -89 q116 0 116 88q0 42 -32 67.5t-85 25.5zM286 295q-61 0 -97 -27t-36 -73q0 -47 36 -76t94 -29t94.5 29.5t36.5 76.5q0 45 -35 72t-93 27z" glyph-name="eight" horiz-adv-x="565" unicode="8"/>
<glyph d="M168 151q16 -70 103 -70q60 0 98 45q23 27 31 58t16 102q-58 -82 -165 -82q-97 0 -157 61t-60 159q0 105 66.5 170.5t173.5 65.5q109 0 178 -72q81 -84 81 -270q0 -161 -67 -246t-194 -85q-94 0 -153 42.5t-70 118.5zM272 297q55 0 91 37t36 93q0 58 -35 95t-89 37 q-55 0 -89 -36.5t-34 -94.5q0 -59 33 -95t87 -36z" glyph-name="nine" horiz-adv-x="568" unicode="9"/>
<glyph d="M29 422h106v-97h-106v97zM29 164h106v-97h-106v97z" glyph-name="colon" horiz-adv-x="167" unicode=":"/>
<glyph d="M29 352h107v-97h-107v97zM29 97h107v-72q0 -6 -1 -34q-1 -31 -19 -51q-22 -25 -72 -25h-10v23q32 1 45.5 12.5t13.5 41.5v8h-64v97z" glyph-name="semicolon" horiz-adv-x="167" unicode=";"/>
<glyph d="M878 214h-67l-56 172l-23 -73l131 -336h-136l-37 -247h-81l-37 247h-136l132 338l-26 71l-58 -172h-66l91 296q3 6 7 17q8 14 33 19l30 6q30 6 30 23q0 14 -16 25q-39 28 -39 76q0 40 27.5 67t67.5 27q41 0 67.5 -27t26.5 -68q0 -49 -40 -75q-15 -10 -15 -22 q0 -21 22 -25l10 -3l31 -6q20 -4 26.5 -10t12.5 -27l8 -26z" glyph-name="less" unicode="&lt;"/>
<glyph d="M466 631h287l380 -184h320v-124h-317l-305 -147h622v-123h-623l401 -184h-285l-379 184h-321v123h321l302 147h-623v124h619z" glyph-name="equal" horiz-adv-x="1700" unicode="="/>
<glyph d="M926 145h-92l-71 207l-25 -99l166 -523h-121l-136 364l-128 -364h-121l161 517l-25 105l-68 -207h-92l107 351q11 37 18 45t30 8h43q21 0 26.5 3.5t5.5 17.5q0 8 -7 12q-49 26 -49 88q0 43 28 71.5t70 28.5t70 -29t28 -72q0 -58 -48 -87q-8 -5 -8 -10q0 -22 15 -22l9 -1 h60h9q5 -1 6 -1q12 -4 18 -22l7 -23z" glyph-name="greater" unicode="&gt;"/>
<glyph d="M207 97h106v-97h-106v97zM69 433v16q0 93 56.5 150t150.5 57q96 0 159 -61q51 -50 51 -139q0 -35 -9.5 -66t-32 -54t-77.5 -62q-33 -23 -43.5 -43.5t-10.5 -61.5v-5h-106q0 60 10 92q13 41 58 73l46 33q51 37 51 91q0 44 -27 70t-73 26q-97 0 -97 -106q0 -8 1 -12z" glyph-name="question" horiz-adv-x="542" unicode="?"/>
<glyph d="M1131 734v-968h-966v968h966zM739 566h-182v-219h-221v-181h221v-225h182v225h222v181h-222v219z" glyph-name="at" unicode="@"/>
<glyph d="M233 651h165l203 -651h-126l-36 121h-256l-39 -121h-127zM312 530l-97 -306h193z" glyph-name="A" horiz-adv-x="619" unicode="A"/>
<glyph d="M58 651h261q116 0 167 -33q65 -42 65 -138q0 -56 -28 -91q-19 -24 -64 -43q51 -14 76 -39q42 -43 42 -119q0 -97 -65 -148q-35 -27 -81 -35q-27 -5 -89 -5h-284v651zM178 556v-172h135q60 0 86 17q32 21 32 69q0 41 -28 65q-24 21 -91 21h-134zM178 292v-194h149 q64 0 96 23.5t32 72.5q0 67 -58 89q-22 9 -78 9h-141z" glyph-name="B" horiz-adv-x="618" unicode="B"/>
<glyph d="M468 450q-28 109 -140 109q-79 0 -126 -63t-47 -168q0 -107 48.5 -171t130.5 -64q109 0 134 109h125q-5 -46 -20 -80q-28 -64 -91.5 -99.5t-150.5 -35.5q-137 0 -217.5 92t-80.5 249q0 156 79 246t216 90q110 0 182 -58.5t80 -155.5h-122z" glyph-name="C" horiz-adv-x="620" unicode="C"/>
<glyph d="M60 651h235q99 0 146 -17t91 -67q76 -87 76 -246q0 -144 -71 -232q-44 -54 -98 -71.5t-178 -17.5h-201v651zM180 547v-447h113q101 0 147.5 61.5t46.5 167.5q0 98 -43 156q-28 38 -63 50t-116 12h-85z" glyph-name="D" horiz-adv-x="643" unicode="D"/>
<glyph d="M61 651h445v-100h-325v-168h311v-101h-311v-182h336v-100h-456v651z" glyph-name="E" horiz-adv-x="557" unicode="E"/>
<glyph d="M61 651h452v-100h-332v-184h315v-100h-315v-267h-120v651z" glyph-name="F" horiz-adv-x="539" unicode="F"/>
<glyph d="M344 353h257v-353h-108l-2 70q-5 -5 -20 -21q-59 -60 -154 -60q-126 0 -205.5 93.5t-79.5 242.5q0 81 28.5 153.5t76.5 115.5q77 68 200 68q104 0 171 -50.5t87 -144.5l-120 -3q-26 94 -138 94q-85 0 -133.5 -63.5t-48.5 -173.5q0 -103 49.5 -165t131.5 -62 q71 0 110 41.5t40 117.5h-142v100z" glyph-name="G" horiz-adv-x="657" unicode="G"/>
<glyph d="M58 651h120v-273h268v273h120v-651h-120v278h-268v-278h-120v651z" glyph-name="H" horiz-adv-x="625" unicode="H"/>
<glyph d="M61 651h120v-651h-120v651z" glyph-name="I" horiz-adv-x="240" unicode="I"/>
<glyph d="M141 651h120v-499q0 -63 -7 -93q-16 -67 -137 -67q-5 0 -89 4l-21 1v97h11l34 1q53 2 71 13q9 6 14 19q4 18 4 31v493z" glyph-name="J" horiz-adv-x="320" unicode="J"/>
<glyph d="M59 651h120v-291l225 291h148l-216 -267l247 -384h-140l-179 293l-85 -106v-187h-120v651z" glyph-name="K" horiz-adv-x="584" unicode="K"/>
<glyph d="M59 651h120v-551h322v-100h-442v651z" glyph-name="L" horiz-adv-x="520" unicode="L"/>
<glyph d="M62 651h181l135 -462l139 462h180v-651h-113v496l-157 -496h-99l-153 496v-496h-113v651z" glyph-name="M" horiz-adv-x="757" unicode="M"/>
<glyph d="M59 651h153l288 -482v482h120v-651h-153l-288 485v-485h-120v651z" glyph-name="N" horiz-adv-x="680" unicode="N"/>
<glyph d="M331 661q132 0 214 -95t82 -248q0 -146 -83 -239t-214 -93q-133 0 -216 93.5t-83 244.5t83 244t217 93zM328 554q-81 0 -127 -62t-46 -171q0 -106 46.5 -168t126.5 -62q82 0 129 60.5t47 164.5q0 111 -47 174.5t-129 63.5z" glyph-name="O" horiz-adv-x="660" unicode="O"/>
<glyph d="M59 651h241q75 0 112 -11t70 -41q61 -57 61 -161q0 -103 -63 -158q-36 -32 -84 -40q-27 -5 -96 -5h-121v-235h-120v651zM179 552v-216h114q77 0 103 25q30 29 30 80q0 36 -18.5 65.5t-51.5 38.5q-26 7 -100 7h-77z" glyph-name="P" horiz-adv-x="564" unicode="P"/>
<glyph d="M543 80q22 -12 55 -28q25 -12 51 -22l-52 -101l-24 11q-74 34 -129 74q-51 -26 -115 -26q-131 0 -214 93t-83 241q0 151 82 245t214 94q136 0 218.5 -91t82.5 -240q0 -150 -86 -250zM332 561q-81 0 -130 -63.5t-49 -169.5q0 -111 46.5 -174t128.5 -63q85 0 133 62.5 t48 172.5q0 107 -48.5 171t-128.5 64z" glyph-name="Q" horiz-adv-x="668" unicode="Q"/>
<glyph d="M59 651h243q89 0 128.5 -10.5t69.5 -41.5q47 -48 47 -132q0 -70 -40 -108q-19 -18 -67 -37q51 -17 67 -46q11 -20 14.5 -47t7.5 -113q2 -39 4 -64q3 -30 18 -52l-131 1q-1 5 -2 13q-3 19 -6 101t-12 109q-5 15 -19 28q-11 10 -24 12.5t-55 2.5h-123v-267h-120v651z M179 555v-190h121q62 0 90 18q38 24 38 75t-34 77q-26 20 -95 20h-120z" glyph-name="R" horiz-adv-x="581" unicode="R"/>
<glyph d="M565 453l-125 -2q-8 102 -140 102q-56 0 -90.5 -24t-34.5 -64q0 -30 20 -45q26 -20 104 -29q159 -18 213 -65q60 -51 60 -134q0 -95 -70.5 -150.5t-191.5 -55.5q-120 0 -196.5 60t-80.5 158h128q5 -53 46 -83.5t108 -30.5q60 0 96.5 25.5t36.5 67.5q0 68 -112 82 q-116 15 -168 33t-83 61.5t-31 98.5q0 90 67 143.5t179 53.5q119 0 186 -53q76 -60 79 -149z" glyph-name="S" horiz-adv-x="604" unicode="S"/>
<glyph d="M11 651h470v-100h-174v-551h-120v551h-176v100z" glyph-name="T" horiz-adv-x="493" unicode="T"/>
<glyph d="M592 651v-338q0 -89 -7 -130q-15 -87 -87 -140.5t-175 -53.5q-148 0 -222 102q-31 43 -39 92q-7 43 -7 130v338h120v-383q0 -80 24 -117q39 -60 124 -60q86 0 128 65q21 33 21 112v383h120z" glyph-name="U" horiz-adv-x="648" unicode="U"/>
<glyph d="M455 651h129l-200 -651h-170l-203 651h131l159 -515z" glyph-name="V" horiz-adv-x="594" unicode="V"/>
<glyph d="M710 651h128l-170 -651h-148l-102 527l-112 -527h-147l-153 651h128l96 -519l117 519h146l105 -519z" glyph-name="W" horiz-adv-x="849" unicode="W"/>
<glyph d="M430 651h141l-200 -313l220 -338h-149l-138 234l-137 -234h-149l219 338l-199 313h144l122 -209z" glyph-name="X" horiz-adv-x="606" unicode="X"/>
<glyph d="M424 651h130l-209 -393v-258h-118v248l-213 403h134l138 -269z" glyph-name="Y" horiz-adv-x="569" unicode="Y"/>
<glyph d="M24 651h462v-101l-324 -450h350v-100h-495v98l322 453h-315v100z" glyph-name="Z" horiz-adv-x="528" unicode="Z"/>
<glyph d="M793 -9h-294l-10 18q-112 8 -187 48q-41 22 -68 49.5t-27 37.5q0 7 13 7h215q-22 36 -22 99v216q0 33 9 39q5 4 17 4h457q65 0 105.5 -37.5t40.5 -97.5q0 -66 -45 -111q-21 -21 -112 -55l-8 -3q-6 -30 -19 -54h228q6 -2 6 -8q0 -15 -39 -48q-34 -28 -86.5 -51t-95.5 -28 l-65 -7zM877 453v-185h5q41 0 72 31t31 72q0 83 -90 83q-10 0 -18 -1z" glyph-name="bracketleft" horiz-adv-x="1295" unicode="["/>
<glyph d="M1130 555l-192 -192q-22 -20 -56 -20q-23 0 -47 10l-103 -102l350 -359q12 -12 12 -19t-15 -21l-64 -60q-6 -5 -14 -5q-4 0 -10 5l-7 6l-291 298q-5 6 -11 6q-5 0 -16 -7q-7 -5 -14 -5q-5 0 -10 5l-33 33l-319 -317q-6 -6 -13 -6q-8 0 -17 9l-65 66q-11 11 -11 20 q0 5 2 7l5 6l4 4l328 301l-285 290q-22 22 -22 56q0 37 25 62t61 25q38 0 68 -31l281 -287l110 100q-10 21 -10 43q0 40 45 79l182 159l31 -34l-157 -149l24 -24l161 144l32 -31l-154 -154l25 -25l158 148z" glyph-name="backslash" horiz-adv-x="1295" unicode="\"/>
<glyph d="M855 679l45 -169q10 -38 10 -73q0 -91 -56 -161q-52 -65 -154 -93v-292h139q24 0 24 -20v-33q0 -17 -19 -17h-386q-18 0 -22 8q-2 4 -2 16v33q0 5 3 8.5t10 3.5q3 0 9 1h141v292q-93 20 -152.5 90.5t-59.5 159.5q0 36 12 81l44 165h414z" glyph-name="bracketright" horiz-adv-x="1295" unicode="]"/>
<glyph d="M47 348q2 28 10 54q16 54 75.5 84t149.5 30q98 0 150 -41q27 -21 36 -58q8 -33 8 -115v-173q0 -65 5 -91q4 -19 13 -38h-118l-3 59l-9 -13q-39 -57 -147 -57q-89 0 -140 42t-51 115q0 82 60 117q40 23 145 41l65 11q53 9 63 13.5t10 18.5q0 24 -3 35q-12 47 -90 47 q-64 0 -99 -33q-14 -14 -20 -48h-110zM368 243l-12 -3q-18 -4 -55 -11l-68 -12q-85 -15 -85 -69q0 -34 25 -54t67 -20q70 0 111 52q18 23 18 73q0 14 -1 21v23z" glyph-name="a" horiz-adv-x="525" unicode="a"/>
<glyph d="M163 664v-210q56 63 140 63q100 0 163 -73.5t63 -189.5q0 -119 -64 -192t-167 -73q-90 0 -142 62v-51h-107v664h114zM283 424q-60 0 -93 -42q-20 -26 -26 -64q-2 -18 -2 -71q0 -87 21 -119q32 -48 96 -48q62 0 99 46.5t37 124.5q0 82 -35 127.5t-97 45.5z" glyph-name="b" horiz-adv-x="555" unicode="b"/>
<glyph d="M378 330q-10 35 -24 53q-30 38 -84 38q-60 0 -96.5 -46t-36.5 -122q0 -75 37 -122.5t96 -47.5q85 0 108 85l114 -3q-9 -80 -69 -128.5t-149 -48.5q-114 0 -181.5 72t-67.5 193q0 118 67 190t178 72q92 0 152 -50t70 -135h-114z" glyph-name="c" horiz-adv-x="515" unicode="c"/>
<glyph d="M392 664h114v-664h-107v51q-52 -62 -142 -62q-103 0 -167 73t-64 192q0 116 63 189.5t163 73.5q84 0 140 -63v210zM272 424q-62 0 -97 -45.5t-35 -127.5q0 -78 36.5 -124.5t99.5 -46.5t96 48q21 31 21 132q0 86 -28 122q-32 42 -93 42z" glyph-name="d" horiz-adv-x="555" unicode="d"/>
<glyph d="M141 232q11 -146 132 -146q56 0 84 29q12 12 23 40l117 -4q-17 -77 -74.5 -120t-144.5 -43q-116 0 -184 72t-68 195q0 119 66 190t176 71t174 -72t64 -197q0 -8 -1 -15h-364zM146 315h240q-16 110 -119 110q-100 0 -121 -110z" glyph-name="e" horiz-adv-x="534" unicode="e"/>
<glyph d="M197 500h108v-87h-108v-413h-113v413h-69v87h69v16q0 71 7 95q11 35 50.5 46.5t109.5 11.5h14q14 -1 28 -1h12v-91h-21q-46 0 -58 -4q-29 -8 -29 -42v-31z" glyph-name="f" horiz-adv-x="319" unicode="f"/>
<glyph d="M489 500l-1 -447q-2 -95 -21 -128q-45 -80 -206 -80q-216 0 -228 146h118q8 -64 103 -64q53 0 88.5 19.5t35.5 91.5q0 24 -1 49q-7 -8 -18 -20q-45 -42 -119 -42q-97 0 -156 67t-59 178t60.5 178t160.5 67q41 0 72 -12.5t62 -48.5v46h109zM378 267v7q0 152 -114 152 q-58 0 -92 -42.5t-34 -113.5q0 -70 33.5 -112.5t88.5 -42.5q118 0 118 152z" glyph-name="g" horiz-adv-x="539" unicode="g"/>
<glyph d="M56 664h113v-215q57 66 145 66q80 0 129 -50q26 -26 36 -60q9 -30 9 -117v-286h-113v295q0 66 -18 91q-24 33 -72 33q-33 0 -63.5 -20t-42.5 -51q-10 -26 -10 -93v-255h-113v662z" glyph-name="h" horiz-adv-x="530" unicode="h"/>
<glyph d="M56 663h113v-104h-113v104zM56 500h113v-500h-113v500z" glyph-name="i" horiz-adv-x="219" unicode="i"/>
<glyph d="M77 662h114v-103h-114v103zM77 500h114l-1 -507q0 -23 -1 -55q-2 -38 -22 -61q-26 -30 -114 -30h-7q-18 0 -49 1l-7 1v90h17q40 0 51 6q19 10 19 47v508z" glyph-name="j" horiz-adv-x="239" unicode="j"/>
<glyph d="M56 664h113v-380l181 216h140l-180 -205l217 -295h-137l-153 214l-68 -81v-133h-113v664z" glyph-name="k" horiz-adv-x="523" unicode="k"/>
<glyph d="M56 664h114v-664h-114v664z" glyph-name="l" horiz-adv-x="218" unicode="l"/>
<glyph d="M52 500h106v-67q48 81 139 81q104 0 134 -85q51 85 149 85q68 0 114 -39q22 -19 36 -50q15 -34 15 -126v-299h-114v264q0 59 -1 76q-5 76 -73 76q-40 0 -66 -25.5t-33 -65.5q-4 -18 -4 -63v-262h-113v300q0 56 -11 80q-16 36 -62 36q-34 0 -60.5 -21.5t-35.5 -54.5 q-7 -25 -7 -87v-253h-113v500z" glyph-name="m" horiz-adv-x="788" unicode="m"/>
<glyph d="M53 500h114v-54q49 70 142 70q69 0 114.5 -32t59.5 -85q7 -28 7 -87v-312h-113v285q0 38 -3 62q-4 34 -28 54t-60 20q-57 0 -89 -39q-22 -27 -28 -73q-2 -19 -2 -81v-228h-114v500z" glyph-name="n" horiz-adv-x="534" unicode="n"/>
<glyph d="M266 514q111 0 178.5 -71.5t67.5 -187.5q0 -121 -65.5 -192.5t-177.5 -71.5q-113 0 -179 70t-66 189q0 120 66 192t176 72zM268 422q-62 0 -98.5 -47.5t-36.5 -126.5q0 -76 37 -121t99 -45t97 45t35 124q0 78 -36 124.5t-97 46.5z" glyph-name="o" horiz-adv-x="541" unicode="o"/>
<glyph d="M55 500h108v-46q9 10 21 21q44 40 118 40q100 0 164.5 -73.5t64.5 -188.5q0 -119 -62.5 -191t-165.5 -72q-31 0 -60 9q-40 12 -75 51v-200h-113v650zM284 422q-64 0 -94 -45q-23 -34 -23 -138q0 -65 17 -99q28 -57 103 -57q62 0 97 44.5t35 123.5t-36.5 125t-98.5 46z " glyph-name="p" horiz-adv-x="557" unicode="p"/>
<glyph d="M504 500v-650h-113v200q-17 -17 -25 -24q-41 -36 -111 -36q-103 0 -165 72t-62 191q0 115 64.5 188.5t164.5 73.5q34 0 66 -10q36 -11 73 -51v46h108zM275 422q-62 0 -98.5 -46t-36.5 -125t35 -123.5t96 -44.5q88 0 114 79q7 24 7 78q0 46 -4 80q-6 47 -36 74.5t-77 27.5 z" glyph-name="q" horiz-adv-x="557" unicode="q"/>
<glyph d="M53 500h108l3 -80l7 15q35 75 134 75q14 0 28 -1v-110h-18q-90 0 -124 -47q-12 -16 -17 -38q-8 -33 -8 -92v-222h-113v500z" glyph-name="r" horiz-adv-x="345" unicode="r"/>
<glyph d="M356 359q-9 70 -105 70q-44 0 -70 -17.5t-26 -46.5q0 -15 7 -25q9 -14 33 -19.5t99 -11.5q184 -16 184 -155q0 -79 -58 -122.5t-162 -43.5q-103 0 -165 46q-53 39 -67 123h118q5 -36 36.5 -57.5t81.5 -21.5q47 0 74 18.5t27 49.5q0 26 -14.5 37t-38.5 14q-20 3 -81 10 q-113 14 -154 52q-35 32 -35 93q0 74 57.5 118.5t154.5 44.5q112 0 169 -55q38 -37 44 -85l2 -16h-111z" glyph-name="s" horiz-adv-x="505" unicode="s"/>
<glyph d="M83 659h113v-159h111v-87h-111v-264q0 -39 13.5 -50t95.5 -11v-92l-29 -1q-29 -1 -45 -1q-28 0 -45 1q-59 3 -83 35q-12 15 -16 36.5t-4 117.5v229h-72v87h72v159z" glyph-name="t" horiz-adv-x="328" unicode="t"/>
<glyph d="M51 500h113v-282q0 -13 1 -28v-16q0 -27 9 -47q20 -45 80 -45q73 0 103 66q12 26 12 96v256h114v-500h-110l-1 58q-57 -68 -145 -68q-55 0 -99 25q-47 27 -66 76q-11 27 -11 91v318z" glyph-name="u" horiz-adv-x="531" unicode="u"/>
<glyph d="M132 500l132 -379l126 379h121l-176 -500h-143l-180 500h120z" glyph-name="v" horiz-adv-x="525" unicode="v"/>
<glyph d="M138 500l91 -382l84 382h122l87 -379l90 379h127l-148 -500h-132l-85 376l-83 -376h-132l-146 500h125z" glyph-name="w" horiz-adv-x="750" unicode="w"/>
<glyph d="M164 500l90 -147l91 147h130l-158 -237l174 -263h-132l-105 171l-106 -171h-132l174 263l-157 237h131z" glyph-name="x" horiz-adv-x="508" unicode="x"/>
<glyph d="M136 500l125 -369l105 369h123l-185 -563q-22 -62 -40 -75q-22 -16 -67 -16l-24.5 1t-49.5 1h-39v92h67q32 0 41.5 14.5t16.5 41.5l-196 504h123z" glyph-name="y" horiz-adv-x="501" unicode="y"/>
<glyph d="M31 500h381v-96l-250 -311h263v-93h-403v93l251 316h-242v91z" glyph-name="z" horiz-adv-x="444" unicode="z"/>
<glyph d="M775 405l7 -81h-216l8 -81h340l151 -313l76 37l30 -66l-159 -77l-157 323h-371l-36 432q-2 18 -5 46q-2 25 -2 38q0 41 29.5 70t71.5 29q43 0 72.5 -28.5t29.5 -70.5t-27 -70t-71 -32l14 -156h215zM841 109l70 -146q-43 -99 -124.5 -154t-185.5 -55q-140 0 -237.5 97 t-97.5 236q0 127 78 217q30 34 93 77l9 -107q-33 -32 -49 -56q-38 -57 -38 -129q0 -101 71 -171.5t171 -70.5q98 0 169.5 71t71.5 169v9q-1 7 -1 13z" glyph-name="braceleft" unicode="{"/>
<glyph d="M521 422h215l14 156q-44 4 -71 32t-27 70t29.5 70.5t72.5 28.5q42 0 71.5 -29t29.5 -70q0 -13 -2 -38q-2 -12 -5 -46l-36 -432h-371l-157 -323l-158 77l29 66l76 -37l151 313h340l8 81h-216zM455 126v-13q-1 -7 -1 -9q0 -98 71.5 -169t169.5 -71q101 0 171.5 71t70.5 171 q0 71 -38 129q-17 27 -49 56l9 107q61 -40 93 -77q78 -90 78 -217q0 -139 -97.5 -236t-237.5 -97q-104 0 -185.5 55t-124.5 154z" glyph-name="braceright" unicode="}"/>
<glyph glyph-name="nonbreakingspace" horiz-adv-x="199" unicode=" "/>
<glyph d="M0 750h993v-1000h-993v1000zM221 680v-575h-16q-23 0 -36 -10q-9 -7 -23 -30l-48 -81h123v-126l-62 -63h383l26 26q18 18 25 22.5t42 4.5h49l-54 -53h85l63 63v425h-63q-23 0 -31 2q-19 4 -35 24l-10 12l-37 49l-72 -124l180 -372h-64q-14 0 -24 10q-6 5 -9 13l-11 22 l-146 303l-21 -136q-6 -41 -25 -60t-70 -19h-203l22 39q14 24 22.5 29.5t39.5 5.5h135l21 134q2 14 6 36q3 9 8 19l5 13l60 138h-98l-45 -78q-17 -30 -35 -30q-13 0 -23.5 9.5t-10.5 21.5q0 10 13 32l37 62q6 10 9 16q10 16 23.5 23.5t46.5 7.5h169q42 0 57 -10q8 -5 30 -34 l72 -94h77v333h-557zM596 646q29 0 50 -21.5t21 -51.5q0 -29 -21 -49.5t-51 -20.5q-29 0 -50 20.5t-21 48.5q0 31 21 52.5t51 21.5z" glyph-name="exclamdown" horiz-adv-x="993" unicode="¡"/>
<glyph d="M1002 750v-1000h-1002v1000h1002zM799 108v597h-600v-852l74 -76h616l-90 92v117h-19v-126l63 -64h-387l-32 32l-9 8q-12 11 -34 11h-68l52 -51h-84l-64 64v429h85q12 0 20 4t22 22l51 65l74 -128l-182 -375h49q25 0 32 4.5t18 26.5l147 301l4 10q3 4 3 6l2 6l2 4v-4 l2 -12l1 -10l20 -123q1 -11 5 -28q13 -44 60 -44h229l-23 38l-6 9q-13 19 -34 19h-156l-18 127q0 1 -1 5.5t-2 7.5q-1 12 -5 25t-15 38l-63 148h104l42 -73q22 -38 42 -38q11 0 20 8.5t9 18.5q0 7 -8 22l-6 11l-44 74q-14 24 -23 29.5t-39 5.5h-188q-29 0 -43 -8 q-9 -5 -26 -27l-83 -108h-78v341h563v-579h19zM402 651q-29 0 -50 -21t-21 -51q0 -29 21 -49t51 -20q28 0 48.5 21t20.5 50t-20.5 49.5t-49.5 20.5z" glyph-name="cent" horiz-adv-x="1002" unicode="¢"/>
<glyph d="M497 435h-103q-1 56 -29 88.5t-76 32.5q-44 0 -73 -31t-29 -77q0 -31 21 -87h103v-87h-91q4 -25 4 -40q0 -57 -39 -134h300v-100h-418v100q19 28 28 48q18 42 18 88q0 18 -6 38h-74v87h63q-24 64 -24 108q0 81 61 135.5t152 54.5q99 0 155 -59t57 -165z" glyph-name="sterling" horiz-adv-x="569" unicode="£"/>
<glyph d="M44 105l1 305q0 46 31 76t77 30h1034q14 0 21 -4t10 -8q8 -10 8 -34v-23l10 -178q20 -12 20 -29l-1 -10v-157q0 -41 -32 -41h-146q5 15 5 27q0 45 -29.5 75.5t-72.5 30.5q-41 0 -69.5 -29.5t-28.5 -72.5q0 -15 6 -31h-418q7 15 7 33q0 42 -29 71.5t-71 29.5t-71 -29.5 t-29 -70.5q0 -13 4 -34zM377 144q33 0 56.5 -23.5t23.5 -55.5q0 -33 -23.5 -57t-56.5 -24t-56.5 24t-23.5 57t23.5 56t56.5 23zM902 64q0 33 23 56.5t55 23.5q34 0 57 -23t23 -56q0 -34 -23.5 -57.5t-55.5 -23.5q-33 0 -56 23.5t-23 56.5zM340 68v-3q0 -16 11 -27.5 t26 -11.5q16 0 27 11t11 27t-11 27t-27 11q-33 0 -37 -34zM943 64q0 -16 11 -27t27 -11q38 0 38 38q0 16 -11.5 27t-27.5 11q-15 0 -26 -11.5t-11 -26.5zM1101 109q0 -19 25 -19h28q14 0 18 6t4 20v295q0 21 -19 21h-33q-23 0 -23 -19v-304zM832 313q0 -27 32 -27h159 q27 0 27 34v87q0 25 -28 25h-161q-29 0 -29 -30v-89zM611 432q-26 0 -26 -25v-87q0 -22 8 -28t27 -6h156q27 0 27 34v82q0 30 -31 30h-161zM340 320q0 -34 34 -34h148q33 0 33 34v86q0 26 -35 26h-145q-35 0 -35 -27v-85zM126 286h143q39 0 39 27v92q0 27 -34 27h-120 q-63 0 -63 -54v-58q0 -20 5.5 -26.5t20.5 -6.5z" glyph-name="yen" unicode="¥"/>
<glyph d="M1084 699v-94h57v-61h-57v-589h57v-61h-57v-93h-57v93h-753v-93h-58v93h-60v61h60v589h-60v61h60v94h58v-94h753v94h57zM1027 544h-753v-589h753v589zM864 405h28q71 0 71 -63v-269q0 -64 -68 -64h-31v396zM465 405h84v42q0 42 42 42h123q38 0 38 -35v-49h89v-396h-376 v396zM443 405v-396h-41q-59 0 -59 65v268q0 63 62 63h38zM706 405v38q0 11 -18 11h-70q-20 0 -20 -16v-33h108zM549 372l-49 -30v-143h102v143zM552 344q12 -2 12 -14q0 -14 -14 -14t-14 14t14 14h2z" glyph-name="section" horiz-adv-x="1295" unicode="§"/>
<glyph d="M232 376l187 187l-8 -400l500 501l147 -147l-501 -501l398 7l-186 -186l-537 1v538z" glyph-name="copyright" unicode="©"/>
<glyph d="M528 50h26q51 0 51 -46v-194q0 -46 -49 -46h-28v286zM250 50h58v30q0 30 30 30h90q27 0 27 -25v-35h59v-286h-264v286zM236 50v-286h-36q-42 0 -42 46v194q0 46 45 46h33zM366 683v54q57 -5 102 -50t47 -101h-53v-42h53q-6 -58 -48 -99.5t-101 -49.5v55h-42v-55 q-67 13 -106 55q-36 38 -44 94h53v42h-53q4 57 47 99.5t103 51.5v-54h42zM1036 711q35 0 61 -25.5t26 -60.5t-25.5 -60.5t-60.5 -25.5t-60.5 25.5t-25.5 60.5t25.5 60.5t59.5 25.5zM735 -236h-93v376q0 31 33 37l232 44q14 3 17.5 6.5t8.5 17.5l83 261q4 13 27 17l61 12 q15 0 17 -18l24 -264l-41 -178q-4 -20 -21 -20h-297q-9 0 -12 -19zM1110 18q20 0 20 -21v-46q0 -24 -15 -24h-295q-19 0 -19 25v45q0 14 5 17.5t20 3.5h284zM422 50v27q0 8 -9 8h-62q-7 0 -7 -8v-27h78zM308 26l-35 -22v-103h73v103zM437 665l-89 -75l-69 60l-27 -32l90 -76 l116 100zM310 6q9 -2 9 -11q0 -10 -9 -10q-11 0 -11 11q0 10 10 10h1z" glyph-name="ordfeminine" unicode="ª"/>
<glyph d="M343 56h-76l-80 189l80 189h76l-80 -189zM213 0h-76l-100 245l100 245h76l-100 -245z" glyph-name="guillemotleft" horiz-adv-x="445" unicode="«"/>
<glyph d="M772 662l187 -186l-400 8l500 -500l-146 -147l-501 501l7 -398l-186 186l1 537z" glyph-name="logicalnot" unicode="¬"/>
<glyph d="M1160 344v-188h-117q-36 -140 -144 -226t-250 -86q-155 0 -270 102q-89 78 -126 210h-121v188h121q32 137 143 224.5t251 87.5q143 0 251 -85t145 -227h117zM912 344q-25 80 -100.5 133t-164.5 53q-97 0 -170 -57t-92 -129h527zM912 156h-528l2 -6q23 -70 89 -121 q77 -60 174 -60q89 0 164.5 53.5t98.5 133.5z" glyph-name="registered" unicode="®"/>
<glyph d="M504 -169l-18 -16q-1 -1 -4 -2q-1 1 -6 3l-18 15l-14 -11q-6 -5 -13 -5q-6 0 -11 4q-38 33 -38 55q0 28 40 28h175q3 32 32 32q11 0 20.5 -8.5t10 -17t5.5 -8.5t7 8q7 25 35.5 44.5t59.5 19.5q42 0 71.5 -29.5t29.5 -72.5q0 -44 -30.5 -75.5t-72.5 -31.5q-58 0 -94 64 q-3 5 -6 5h-1q-3 0 -4 -2.5t-3 -8.5q-6 -19 -29 -19q-7 0 -14.5 3.5t-12.5 11.5q0 -2 -6 17q-3 9 -10 9q-5 0 -13 -8l-21 -21q-3 -3 -5 -4q-5 -5 -8 -5q-4 1 -6 3l-6 6zM1090 737v-728h-887v728h887zM823 -131q0 26 -27 26q-28 0 -28 -28q0 -27 28 -27q27 0 27 29zM1034 676 h-775v-604h775v604zM857 541h38q74 0 74 -66v-279q0 -66 -71 -66h-41v411zM458 541h83v44q0 43 44 43h128q40 0 40 -36v-51h84v-411h-379v411zM437 541v-411h-50q-62 0 -62 67v278q0 66 65 66h47zM705 541v35q0 11 -3 13.5t-15 2.5h-84q-10 -1 -10 -17v-34h112zM541 507 l-50 -32v-148h106v148zM544 478q14 -2 14 -15q0 -14 -15 -14t-15 14q0 15 15 15h1z" glyph-name="paragraph" horiz-adv-x="1295" unicode="¶"/>
<glyph d="M357 680v54q57 -5 102 -50t48 -101h-53v-42h53q-7 -57 -49 -99t-101 -50v55h-42v-55q-68 15 -104.5 54.5t-44.5 94.5h53v42h-53q4 57 46.5 99.5t102.5 51.5v-54h42zM1018 712q35 0 60.5 -25.5t25.5 -60.5t-25.5 -60.5t-60.5 -25.5t-60 25t-25 60q0 36 25 61.5t60 25.5z M646 507q24 0 41.5 -17t17.5 -41q0 -25 -17.5 -42.5t-41.5 -17.5t-42 18t-18 43q0 23 18 40t42 17zM765 313l-43 -7l48 -64q6 -6 6 -14q0 -11 -21 -18l-131 -43q-4 -2 -9 -2q-16 0 -17 19l-5 179q0 18 20 18q3 0 6 -1l146 -39v-28zM611 -234l-8 265h-23q-20 0 -20 16 q0 4 1 6l26 72q7 19 24 25l36 12l146 -45l18 20l-46 61l202 67l-23 69l-145 -19l-6 40l193 147q4 2 12.5 9.5t25.5 11.5l54 13q5 2 9 2q17 0 18 -24l10 -211l-59 -214q-5 -20 -12.5 -25t-27.5 -5h-251q-16 0 -19 -17l-44 -276h-91zM1079 22q17 0 17 -22v-45q0 -21 -9 -24 q-5 -2 -15 -2h-279q-16 0 -16 14v62q0 17 22 17h280zM428 663l-88 -76l-69 60l-27 -31l90 -76l116 99z" glyph-name="ordmasculine" horiz-adv-x="1295" unicode="º"/>
<glyph d="M102 434h76l80 -189l-80 -189h-76l80 189zM232 490h76l100 -245l-100 -245h-76l100 245z" glyph-name="guillemotright" horiz-adv-x="445" unicode="»"/>
<glyph d="M400 741l59 -56h-82l-60 56h83zM299 741l-56 -56h-88l54 56h90zM229 651h165l203 -651h-126l-36 121h-256l-39 -121h-127zM308 530l-97 -306h193z" glyph-name="Acircumflex" horiz-adv-x="612" unicode="Â"/>
<glyph d="M278 -10q-118 18 -183.5 107.5t-65.5 230.5q0 156 79.5 246t216.5 90q110 0 182 -58.5t79 -155.5h-122q-27 109 -139 109q-79 0 -126 -63t-47 -168q0 -107 48.5 -171t130.5 -64q108 0 133 109h126q-5 -43 -21 -80q-28 -64 -91 -99.5t-148 -35.5h-23l-8 -38q-1 0 7.5 1.5 t16.5 1.5q27 0 46.5 -18t19.5 -43q0 -28 -23.5 -46t-58.5 -18q-31 0 -62 10l11 33q22 -8 42 -8q41 0 41 32t-44 32q-9 0 -34 -9h-1z" glyph-name="Ccedilla" horiz-adv-x="614" unicode="Ç"/>
<glyph d="M141 741h129l80 -54h-102zM58 651h445v-100h-325v-168h311v-101h-311v-182h336v-100h-456v651z" glyph-name="Egrave" horiz-adv-x="552" unicode="È"/>
<glyph d="M272 741h131l-98 -52h-109zM58 651h445v-100h-325v-168h311v-101h-311v-182h336v-100h-456v651z" glyph-name="Eacute" horiz-adv-x="552" unicode="É"/>
<glyph d="M369 741l60 -56h-82l-61 56h83zM268 741l-55 -56h-89l54 56h90zM58 651h445v-100h-325v-168h311v-101h-311v-182h336v-100h-456v651z" glyph-name="Ecircumflex" horiz-adv-x="552" unicode="Ê"/>
<glyph d="M25 741h127l37 -45h-116zM61 651h120v-651h-120v651z" glyph-name="Igrave" horiz-adv-x="241" unicode="Ì"/>
<glyph d="M192 741h128l81 -54h-102zM327 661q132 0 214 -95t82 -248q0 -146 -83 -239t-214 -93q-133 0 -216 93.5t-83 244.5t83 244t217 93zM324 554q-81 0 -127 -62t-46 -171q0 -106 46.5 -168t126.5 -62q82 0 129 60.5t47 164.5q0 111 -47 174.5t-129 63.5z" glyph-name="Ograve" horiz-adv-x="652" unicode="Ò"/>
<glyph d="M420 741l59 -56h-81l-61 56h83zM319 741l-56 -56h-88l54 56h90zM327 661q132 0 214 -95t82 -248q0 -146 -83 -239t-214 -93q-133 0 -216 93.5t-83 244.5t83 244t217 93zM324 554q-81 0 -127 -62t-46 -171q0 -106 46.5 -168t126.5 -62q82 0 129 60.5t47 164.5 q0 111 -47 174.5t-129 63.5z" glyph-name="Ocircumflex" horiz-adv-x="652" unicode="Ô"/>
<glyph d="M190 741h128l81 -54h-102zM588 651v-338q0 -89 -7 -130q-15 -87 -87 -140.5t-175 -53.5q-148 0 -222 102q-31 43 -39 92q-7 43 -7 130v338h120v-383q0 -80 24 -117q39 -60 124 -60q86 0 128 65q21 33 21 112v383h120z" glyph-name="Ugrave" horiz-adv-x="639" unicode="Ù"/>
<glyph d="M805 636l381 -380l-378 -381h-264l286 277h-708v207h708l-289 277h264z" glyph-name="germandbls" unicode="ß"/>
<glyph d="M135 610h128l81 -53h-103zM46 348q2 28 10 54q16 54 75.5 84t149.5 30q98 0 150 -41q27 -21 36 -58q8 -33 8 -115v-173q0 -65 5 -91q4 -19 13 -38h-118l-3 59l-9 -13q-39 -57 -147 -57q-89 0 -140 42t-51 115q0 82 60 117q40 23 145 41l65 11q53 9 63 13.5t10 18.5 q0 24 -3 35q-12 47 -90 47q-64 0 -99 -33q-14 -14 -20 -48h-110zM367 243l-12 -3q-18 -4 -55 -11l-68 -12q-85 -15 -85 -69q0 -34 25 -54t67 -20q70 0 111 52q18 23 18 73q0 14 -1 21v23z" glyph-name="agrave" horiz-adv-x="523" unicode="à"/>
<glyph d="M366 611l59 -56h-82l-60 56h83zM265 611l-56 -56h-88l54 56h90zM46 348q2 28 10 54q16 54 75.5 84t149.5 30q98 0 150 -41q27 -21 36 -58q8 -33 8 -115v-173q0 -65 5 -91q4 -19 13 -38h-118l-3 59l-9 -13q-39 -57 -147 -57q-89 0 -140 42t-51 115q0 82 60 117 q40 23 145 41l65 11q53 9 63 13.5t10 18.5q0 24 -3 35q-12 47 -90 47q-64 0 -99 -33q-14 -14 -20 -48h-110zM367 243l-12 -3q-18 -4 -55 -11l-68 -12q-85 -15 -85 -69q0 -34 25 -54t67 -20q70 0 111 52q18 23 18 73q0 14 -1 21v23z" glyph-name="acircumflex" horiz-adv-x="523" unicode="â"/>
<glyph d="M490 636h264l-289 -277h708v-207h-708l286 -277h-263l-379 381z" glyph-name="aring" unicode="å"/>
<glyph d="M448 459q66 57 162 57q110 0 173.5 -72.5t63.5 -196.5v-15h-364q9 -146 132 -146q54 0 83 29q11 11 24 40l116 -4q-16 -77 -73.5 -119.5t-146.5 -42.5q-108 0 -186 74q-54 -41 -99.5 -58t-105.5 -17q-96 0 -148.5 41t-52.5 117q0 82 60 117q40 23 145 41l65 11 q53 9 63 13.5t10 18.5q0 24 -3 35q-12 47 -90 47q-64 0 -99 -33q-14 -14 -20 -48h-110q2 28 10 54q16 54 75.5 84t149.5 30q118 0 166 -57zM368 243l-12 -3q-18 -4 -55 -11l-68 -12q-85 -15 -85 -69q0 -34 25 -54t67 -20q70 0 111 52q18 23 18 73q0 14 -1 21v23zM487 315 h241q-18 110 -119 110t-122 -110z" glyph-name="ae" horiz-adv-x="875" unicode="æ"/>
<glyph d="M237 -10l-4 1q-72 18 -90 26q-23 10 -51 40q-70 75 -70 196q0 118 67.5 190t177.5 72q93 0 153 -50t69 -135h-114q-8 35 -23 53q-31 38 -84 38q-60 0 -97 -46t-37 -122q0 -75 37.5 -122.5t96.5 -47.5q86 0 107 85l114 -3q-4 -40 -25 -76q-60 -101 -194 -101h-8l-4 -31 q11 3 22 3q23 0 39 -14.5t16 -34.5q0 -23 -20 -39t-50 -16q-22 0 -45 6l6 27q16 -5 30 -5q38 0 38 27q0 26 -35 26q-17 0 -29 -6l-2 -1z" glyph-name="ccedilla" horiz-adv-x="510" unicode="ç"/>
<glyph d="M147 610h128l81 -53h-102zM138 232q11 -146 132 -146q56 0 84 29q12 12 23 40l117 -4q-17 -77 -74.5 -120t-144.5 -43q-116 0 -184 72t-68 195q0 119 66 190t176 71t174 -72t64 -197q0 -8 -1 -15h-364zM143 315h240q-16 110 -119 110q-100 0 -121 -110z" glyph-name="egrave" horiz-adv-x="527" unicode="è"/>
<glyph d="M258 610h130l-98 -52h-108zM138 232q11 -146 132 -146q56 0 84 29q12 12 23 40l117 -4q-17 -77 -74.5 -120t-144.5 -43q-116 0 -184 72t-68 195q0 119 66 190t176 71t174 -72t64 -197q0 -8 -1 -15h-364zM143 315h240q-16 110 -119 110q-100 0 -121 -110z" glyph-name="eacute" horiz-adv-x="527" unicode="é"/>
<glyph d="M361 611l59 -56h-81l-61 56h83zM260 611l-56 -56h-88l54 56h90zM138 232q11 -146 132 -146q56 0 84 29q12 12 23 40l117 -4q-17 -77 -74.5 -120t-144.5 -43q-116 0 -184 72t-68 195q0 119 66 190t176 71t174 -72t64 -197q0 -8 -1 -15h-364zM143 315h240q-16 110 -119 110 q-100 0 -121 -110z" glyph-name="ecircumflex" horiz-adv-x="527" unicode="ê"/>
<glyph d="M163 609h68v-51h-68v51zM304 609h68v-51h-68v51zM138 232q11 -146 132 -146q56 0 84 29q12 12 23 40l117 -4q-17 -77 -74.5 -120t-144.5 -43q-116 0 -184 72t-68 195q0 119 66 190t176 71t174 -72t64 -197q0 -8 -1 -15h-364zM143 315h240q-16 110 -119 110 q-100 0 -121 -110z" glyph-name="edieresis" horiz-adv-x="527" unicode="ë"/>
<glyph d="M68 623h88l49 -78h-45l-48 78l-49 -78h-44zM56 500h114v-500h-114v500z" glyph-name="icircumflex" horiz-adv-x="219" unicode="î"/>
<glyph d="M6 609h68v-51h-68v51zM147 609h68v-51h-68v51zM56 500h114v-500h-114v500z" glyph-name="idieresis" horiz-adv-x="219" unicode="ï"/>
<glyph d="M357 611l60 -56h-88l-55 56h83zM256 611l-55 -56h-89l54 56h90zM263 514q111 0 178.5 -71.5t67.5 -187.5q0 -121 -65.5 -192.5t-177.5 -71.5q-113 0 -179 70t-66 189q0 120 66 192t176 72zM265 422q-62 0 -98.5 -47.5t-36.5 -126.5q0 -76 37 -121t99 -45t97 45t35 124 q0 78 -36 124.5t-97 46.5z" glyph-name="ocircumflex" horiz-adv-x="534" unicode="ô"/>
<glyph d="M1153 -256h-1007v769h142l1 -626h720v626h144v-769zM649 110l-232 232v171l168 -173v416h130v-416l167 171v-169z" glyph-name="divide" unicode="÷"/>
<glyph d="M1251 105l-237 -73q5 20 5 34q0 41 -29 70.5t-71 29.5t-71.5 -29.5t-29.5 -72.5q0 -17 8 -32h-418q6 16 6 31q0 43 -28.5 72.5t-69.5 29.5q-43 0 -72.5 -30t-29.5 -74q0 -12 4 -29h-146q-32 0 -32 41v167q0 17 19 29l10 201q0 24 8.5 35t30.5 11h1035q47 0 77.5 -30 t30.5 -76v-305zM918 144q33 0 56.5 -23t23.5 -56t-23.5 -57t-55.5 -24q-33 0 -56.5 24t-23.5 57q0 32 23.5 55.5t55.5 23.5zM394 64q0 -33 -23 -56.5t-56 -23.5t-56.5 23.5t-23.5 57.5q0 32 23.5 55.5t56.5 23.5q32 0 55.5 -23.5t23.5 -56.5zM955 68q0 14 -11 24t-25 10 q-16 0 -27 -11t-11 -27t10.5 -27t26.5 -11t26.5 11t10.5 28v3zM353 64q0 15 -11.5 26.5t-26.5 11.5q-16 0 -27 -11t-11 -27q0 -38 37 -38q39 0 39 38zM120 116q0 -15 3.5 -20.5t18.5 -5.5h27q26 0 26 19v304q0 19 -23 19h-33q-11 0 -15 -4t-4 -17v-295zM245 320 q0 -34 28 -34h159q31 0 31 27v89q0 30 -29 30h-161q-28 0 -28 -25v-87zM524 432q-31 0 -31 -30v-82q0 -34 27 -34h155q25 0 31 11q4 6 4 23v87q0 25 -25 25h-161zM921 286q35 0 35 34v85q0 27 -35 27h-146q-35 0 -35 -26v-86q0 -34 33 -34h148zM987 313q0 -27 39 -27h143 q22 0 29 6.5t7 27.5v58q0 54 -64 54h-120q-34 0 -34 -27v-92z" glyph-name="oslash" unicode="ø"/>
<glyph d="M150 610h129l80 -53h-102zM47 500h113v-282q0 -13 1 -28v-16q0 -27 9 -47q20 -45 80 -45q73 0 103 66q12 26 12 96v256h114v-500h-110l-1 58q-57 -68 -145 -68q-55 0 -99 25q-47 27 -66 76q-11 27 -11 91v318z" glyph-name="ugrave" horiz-adv-x="524" unicode="ù"/>
<glyph d="M359 611l59 -56h-82l-61 56h84zM257 611l-55 -56h-89l55 56h89zM47 500h113v-282q0 -13 1 -28v-16q0 -27 9 -47q20 -45 80 -45q73 0 103 66q12 26 12 96v256h114v-500h-110l-1 58q-57 -68 -145 -68q-55 0 -99 25q-47 27 -66 76q-11 27 -11 91v318z" glyph-name="ucircumflex" horiz-adv-x="524" unicode="û"/>
<glyph d="M159 609h68v-51h-68v51zM300 609h68v-51h-68v51zM47 500h113v-282q0 -13 1 -28v-16q0 -27 9 -47q20 -45 80 -45q73 0 103 66q12 26 12 96v256h114v-500h-110l-1 58q-57 -68 -145 -68q-55 0 -99 25q-47 27 -66 76q-11 27 -11 91v318z" glyph-name="udieresis" horiz-adv-x="524" unicode="ü"/>
</font>
</defs>
</svg>
