<?xml version="1.0" encoding="UTF-8"?>
<!DOCTYPE svg  PUBLIC '-//W3C//DTD SVG 1.1//EN'  'http://www.w3.org/Graphics/SVG/1.1/DTD/svg11.dtd'>
<svg version="1.1" xmlns="http://www.w3.org/2000/svg">
<defs>
<font id="BritishRailDarkNormal" horiz-adv-x="1255">
<font-face font-family="BritishRailDarkNormal" font-weight="400" ascent="800" bbox="-18 -254 1408 755" cap-height="646" descent="-200" panose-1="0 0 4 0 0 0 0 0 0 0" underline-position="0" underline-thickness="0" unicode-range="U+0020-00FC" units-per-em="1000" x-height="500"/>
<missing-glyph/>
<glyph glyph-name="space" horiz-adv-x="193" unicode=" "/>
<glyph d="M96 646h119v-184l-27 -316h-66l-26 320v180zM96 109h119v-109h-119v109z" glyph-name="exclam" horiz-adv-x="248" unicode="!"/>
<glyph d="M1120 539l-337 -775l-208 90l-39 -91l-401 175l336 774l155 -67l40 92zM1040 507l-341 148l-288 -662l341 -149zM426 139l-59 26l-10 -22l59 -26zM349 172l-59 26l-10 -22l60 -25zM577 586l-29 12q-9 -16 -25 -16q-10 0 -23 6l-13 -30l27 -12l-59 -137l38 -16zM835 450 l-38 16q1 6 1 12q0 16 -14.5 27.5t-33.5 11.5q-24 0 -24 -20q0 -13 24 -29q62 -42 62 -77q0 -26 -19.5 -44t-48.5 -18q-41 0 -73 26t-32 59q0 8 6 29l41 -18q-3 -8 -3 -16q0 -16 17 -28.5t38 -12.5q26 0 26 22q0 14 -36 40q-48 35 -48 64q0 25 19 44t45 19q38 0 67 -25 t29 -57q0 -10 -5 -25zM812 42l-11 -23l-61 26l11 24zM734 77l-10 -25l-63 28l10 24zM655 111l-11 -24l-62 27l11 24zM576 145l-11 -24l-61 27l11 24z" glyph-name="dollar" unicode="$"/>
<glyph d="M741 -5l12 21q14 25 31 25q6 0 17 -3t13 -3q1 0 6 2l5 2q3 2 10 2q8 0 34 -19l63 -46l14 -10t11 -11.5t4 -16.5v-4q0 -8 9 -19t9 -21q0 -15 -31 -56t-52 -57q-27 -20 -64 -20q-112 0 -244 161q-123 150 -203 325q-84 184 -84 297q0 48 17 91.5t45 63.5q21 16 72 29 q42 11 50 11q16 0 24 -11q4 -7 12 -39l23 -93q3 -13 7 -30q9 -41 9 -52q0 -36 -34 -36q-4 0 -6 1l-13 1h-16q-5 0 -7.5 -2.5t-11.5 -9.5q-24 -20 -24 -39q0 -6 5 -28t33 -76l130 -253q29 -56 63 -81q25 -18 36 -18t19 12z" glyph-name="percent" horiz-adv-x="1256" unicode="%"/>
<glyph d="M443 312h119v-8q0 -41 -14 -89q-12 -42 -47 -89q1 -1 2.5 -3l1.5 -2q18 -21 38 -21q11 0 17 1h11l9 1v-103h-8q-14 0 -27 -1t-20 -1q-39 0 -59 7q-16 6 -42 34l-8 8q-61 -52 -152 -52q-107 0 -177.5 63.5t-70.5 159.5q0 41 16 77q23 52 88 88l9 5l-8 10q-45 56 -45 107 q0 68 49.5 112t126.5 44q79 0 131.5 -44.5t52.5 -111.5q0 -78 -62 -125q-22 -17 -61 -35l108 -125q22 35 22 86v7zM198 298l-4 -2q-22 -11 -38 -35.5t-16 -49.5q0 -43 36 -75t85 -32q43 0 76 25l4 3zM238 430l14 4q67 19 67 69q0 26 -17.5 43.5t-45.5 17.5q-25 0 -41.5 -16 t-16.5 -41q0 -31 40 -77z" glyph-name="ampersand" horiz-adv-x="582" unicode="&amp;"/>
<glyph d="M204 679h120l-13 -13q-53 -53 -91 -116q-73 -121 -73 -279q0 -87 23 -167q29 -103 127 -217l12 -14l11 -12h-116l-2 2q-175 175 -175 404q0 114 41 218.5t118 176.5z" glyph-name="parenleft" horiz-adv-x="327" unicode="("/>
<glyph d="M122 679l2 -2l7 -6q3 -2 9 -9q39 -41 68 -85q92 -137 92 -311q0 -78 -22 -153q-37 -127 -137 -232l-19 -20h-116l11 12q29 31 70 89q92 129 92 309q0 159 -72 279q-24 39 -36 55q-16 21 -56 61l-13 13h120z" glyph-name="parenright" horiz-adv-x="327" unicode=")"/>
<glyph d="M829 -230v226l91 64v227h-40l-24 -120q-3 -15 -8 -15q-1 0 -8 2l-662 142h-68q-29 0 -29 23q0 22 26 22h66l662 139l10 2q6 0 9 -15l26 -121h148q49 0 84 -35.5t35 -84.5q0 -50 -35.5 -87t-84.5 -37q-41 0 -41 31q0 11 9 20t16 9h18q24 0 41.5 18.5t17.5 44.5 q0 54 -52 62h-85v-227l93 -64v-226h-215zM486 -230h-232l-19 279v124q0 33 27 33q26 0 26 -32v-100h7v114q0 31 28 31t28 -32v-113h7v114q0 34 28 34q27 0 27 -32v-116h7v116q0 28 27 28q24 0 25 -27l5 -152l31 41q14 19 29 19q32 0 32 -32q0 -2 -3 -13zM790 548l127 -12 q20 -2 20 -15v-7q0 -12 -17 -12h-600q-18 0 -18 14v6q0 11 16 13l127 13l24 160q3 22 30 22q13 0 47 -5q54 -8 74 -8q13 0 77 7q27 3 40 3h1q25 0 29 -27zM936 28q-24 0 -24 -24t24 -24q23 0 23 24t-23 24z" glyph-name="asterisk" unicode="*"/>
<glyph d="M737 745q47 -15 47 -53q0 -7 -4 -25l-67 -304h382q37 0 37 -31q0 -8 -1 -12l-22 -157h-39v107h-26v-107h-32v107h-26v-107h-34v107h-25v-107h-33v107h-25v-107h-34v107h-26v-107h-33v107h-26v-107h-33l59 -168q40 37 88 37q55 0 93.5 -47t38.5 -112q0 -47 -35.5 -82 t-82.5 -35q-86 0 -115 83l-83 238l-50 34l-51 -34l-80 -238q-13 -38 -44 -61t-70 -23q-48 0 -83.5 34.5t-35.5 81.5q0 68 37.5 114t93.5 46q50 0 87 -36l58 168h-33v107h-25v-107h-34v107h-25v-107h-33v107h-26v-107h-33v107h-26v-107h-34v107h-25v-107h-32v107h-27v-107 h-38l-22 154q-2 14 -2 16q0 30 38 30h381l-75 318q-2 6 -2 11q0 35 47 53l114 -321zM717 270h-26v-23l26 -75v98zM567 270h-25v-100l25 74v26zM927 -67q-17 44 -62 44q-28 0 -48 -21t-20 -50q0 -10 5 -24l8 -22q18 -50 64 -50q29 0 49 19.5t20 47.5q0 14 -8 35zM457 -125 q6 14 6 32q0 29 -19 49.5t-47 20.5q-48 0 -65 -49l-10 -29l-2 -6q-2 -14 -2 -16q0 -27 19.5 -47t46.5 -20q46 0 68 53z" glyph-name="plus" horiz-adv-x="1256" unicode="+"/>
<glyph d="M21 109h119v-110q-3 -34 -21 -54q-25 -28 -75 -28h-18v39h15q42 0 42 44h-62v109z" glyph-name="comma" horiz-adv-x="162" unicode=","/>
<glyph d="M20 109h119v-109h-119v109z" glyph-name="period" horiz-adv-x="160" unicode="."/>
<glyph d="M235 694h62l-229 -843h-62z" glyph-name="slash" horiz-adv-x="304" unicode="/"/>
<glyph d="M296 653q125 0 199.5 -89.5t74.5 -240.5q0 -153 -73.5 -244t-196.5 -91q-133 0 -213 106q-62 82 -62 229q0 160 75 245t196 85zM296 536q-64 0 -100 -55.5t-36 -156.5q0 -103 36 -160t102 -57q64 0 100 56t36 155q0 104 -36.5 161t-101.5 57z" glyph-name="zero" horiz-adv-x="597" unicode="0"/>
<glyph d="M244 646v-646h-132v460h-106v100h22q59 0 78 15q14 11 22 64l1 7h115z" glyph-name="one" horiz-adv-x="295" unicode="1"/>
<glyph d="M21 400v8q0 58 16 108q21 67 81 103.5t147 36.5q108 0 173 -59t65 -157q0 -38 -12 -73q-14 -40 -41 -72t-92 -81l-34 -26l-98 -76h264v-112h-461l1 111l208 165q59 47 94 84t35 83q0 44 -27.5 70t-74.5 26q-55 0 -83 -33t-28 -99v-7h-133z" glyph-name="two" horiz-adv-x="529" unicode="2"/>
<glyph d="M36 418v8q0 59 23 110q25 55 84.5 86t139.5 31q104 0 167 -53t63 -140q0 -85 -67 -119l-4 -2l5 -2q83 -33 83 -138q0 -95 -68.5 -152t-184.5 -57q-119 0 -186 59t-68 165l-1 8h132l1 -7q16 -110 120 -110q119 0 119 92q0 45 -39 65q-28 14 -106 14h-29v105h28 q75 0 103.5 16.5t28.5 58.5q0 40 -27 63t-73 23q-111 0 -111 -117v-7h-133z" glyph-name="three" horiz-adv-x="556" unicode="3"/>
<glyph d="M339 646h151v-415h75v-113h-75v-118h-132v118h-340v133zM358 498l-219 -267h219v267z" glyph-name="four" horiz-adv-x="582" unicode="4"/>
<glyph d="M73 646h415v-112h-302l-12 -115l5 5q39 39 121 39q98 0 157.5 -62.5t59.5 -166.5q0 -113 -67 -179t-182 -66q-217 0 -241 203h132l1 -7q5 -37 35 -59t73 -22q54 0 86 34.5t32 92.5q0 57 -30.5 91.5t-82.5 34.5q-74 0 -105 -66h-133z" glyph-name="five" horiz-adv-x="547" unicode="5"/>
<glyph d="M381 481l-1 7q-15 62 -93 62q-114 0 -129 -163v-2l4 4q56 56 145 56q97 0 157.5 -61t60.5 -160q0 -104 -67 -170t-173 -66q-108 0 -179 73q-81 83 -81 266q0 159 67.5 244t194.5 85q94 0 154.5 -43.5t68.5 -119.5l1 -9zM286 340q-50 0 -82.5 -33.5t-32.5 -84.5 q0 -53 32 -86.5t81 -33.5q50 0 80.5 32.5t30.5 86.5q0 53 -30 86t-79 33z" glyph-name="six" horiz-adv-x="550" unicode="6"/>
<glyph d="M-13 646h464v-112l-233 -534h-144l233 527h-320v119z" glyph-name="seven" horiz-adv-x="462" unicode="7"/>
<glyph d="M432 344q94 -42 94 -148q0 -93 -69 -150t-182 -57q-115 0 -184 56t-69 150q0 111 94 150q-76 36 -76 123q0 84 65 135.5t171 51.5q107 0 170.5 -50.5t63.5 -135.5q0 -90 -78 -125zM275 548q-49 0 -77.5 -22t-28.5 -60q0 -78 107 -78q105 0 105 77q0 38 -29 60.5t-77 22.5 zM277 286q-56 0 -88.5 -24.5t-32.5 -65.5t33 -67t85 -26q53 0 86 26t33 69q0 40 -31.5 64t-84.5 24z" glyph-name="eight" horiz-adv-x="548" unicode="8"/>
<glyph d="M169 162l1 -6q5 -28 30.5 -45t62.5 -17q114 0 129 162v2l-4 -4q-56 -56 -145 -56q-97 0 -157.5 61.5t-60.5 159.5q0 104 67 170t173 66q109 0 179 -72q81 -83 81 -267q0 -159 -67.5 -243.5t-194.5 -84.5q-94 0 -154.5 43t-68.5 119l-1 9zM264 304q50 0 82.5 33.5 t32.5 84.5q0 53 -32 86.5t-81 33.5q-50 0 -80.5 -33t-30.5 -86q0 -54 30 -86.5t79 -32.5z" glyph-name="nine" horiz-adv-x="550" unicode="9"/>
<glyph d="M20 424h119v-109h-119v109zM20 174h119v-109h-119v109z" glyph-name="colon" horiz-adv-x="161" unicode=":"/>
<glyph d="M20 356h119v-109h-119v109zM20 109h119v-110q-3 -34 -21 -54q-25 -28 -75 -28h-18v39q37 1 47 10.5t10 33.5h-62v109z" glyph-name="semicolon" horiz-adv-x="162" unicode=";"/>
<glyph d="M851 215h-65l-54 167l-23 -71l128 -326h-133l-36 -239h-78l-36 239h-132l129 328l-25 69l-57 -167h-64l82 265q3 9 7 22q1 3 6 17q9 14 32 18l29 5q30 5 30 23q0 12 -17 24q-38 27 -38 74q0 38 27 64.5t66 26.5t65 -26t26 -66q0 -45 -39 -72q-14 -10 -14 -22 q0 -21 21 -25l40 -8q19 -4 25.5 -10t12.5 -26l7 -25z" glyph-name="less" horiz-adv-x="1256" unicode="&lt;"/>
<glyph d="M452 619h278l368 -178h310v-120h-308l-294 -143h602v-119h-603l388 -178h-276l-368 178h-311v119h311l294 143h-605v120h601z" glyph-name="equal" horiz-adv-x="1647" unicode="="/>
<glyph d="M897 148h-89l-69 201l-24 -96l161 -507h-117l-132 353l-124 -353h-117l155 501l-24 102l-65 -201h-90l104 341q11 36 18 43.5t29 7.5h41q20 0 25.5 3.5t5.5 16.5q0 8 -7 12q-47 25 -47 85q0 41 27.5 69t67.5 28q41 0 68 -28t27 -70q0 -54 -49 -86q-5 -3 -5 -8 q0 -20 15 -22h53l13 -1q6 0 16 -1.5t16 -19.5l7 -23z" glyph-name="greater" horiz-adv-x="1256" unicode="&gt;"/>
<glyph d="M192 109h119v-109h-119v109zM59 420v22q0 94 57 151.5t151 57.5q98 0 160 -61q52 -51 52 -140q0 -37 -10 -68q-17 -52 -109 -116q-31 -21 -40 -39.5t-9 -55.5v-12h-119v7q0 56 11 92q13 42 59 75l45 32q46 33 46 81q0 40 -24 63t-65 23q-86 0 -86 -95v-20z" glyph-name="question" horiz-adv-x="525" unicode="?"/>
<glyph d="M1096 719v-938h-936v938h936zM716 556h-177v-212h-214v-176h214v-217h177v217h215v176h-215v212z" glyph-name="at" horiz-adv-x="1256" unicode="@"/>
<glyph d="M220 646h171l201 -646h-138l-35 117h-236l-38 -117h-139zM303 496l-84 -264h166z" glyph-name="A" horiz-adv-x="600" unicode="A"/>
<glyph d="M48 646h261q115 0 166 -33q67 -43 67 -140q0 -95 -75 -128q99 -34 99 -155q0 -97 -65 -149q-35 -28 -80 -36q-28 -5 -90 -5h-283v646zM180 539v-152h124q106 0 106 76q0 57 -50 71q-18 5 -58 5h-122zM180 283v-172h137q60 0 88.5 20.5t28.5 64.5q0 47 -37 71 q-25 16 -88 16h-129z" glyph-name="B" horiz-adv-x="599" unicode="B"/>
<glyph d="M447 436q-10 42 -26 62q-35 44 -103 44q-73 0 -116.5 -59t-43.5 -157q0 -101 45 -160.5t121 -59.5q62 0 96 41q17 20 27 64h137q-6 -52 -22 -88q-29 -65 -92 -100.5t-149 -35.5q-136 0 -216.5 92t-80.5 247q0 154 79 243.5t215 89.5q112 0 183 -60.5t79 -162.5h-133z" glyph-name="C" horiz-adv-x="601" unicode="C"/>
<glyph d="M50 646h235q98 0 145.5 -17t90.5 -67q76 -87 76 -243q0 -142 -71 -230q-44 -54 -97.5 -71.5t-175.5 -17.5h-203v646zM182 530v-418h102q93 0 136.5 57.5t43.5 156.5q0 93 -40 147q-29 40 -75 51q-26 6 -93 6h-74z" glyph-name="D" horiz-adv-x="623" unicode="D"/>
<glyph d="M51 646h447v-112h-315v-148h301v-112h-301v-162h325v-112h-457v646z" glyph-name="E" horiz-adv-x="540" unicode="E"/>
<glyph d="M52 646h453v-112h-322v-163h305v-112h-305v-259h-131v646z" glyph-name="F" horiz-adv-x="522" unicode="F"/>
<glyph d="M326 358h264v-358h-120l-1 56q-66 -67 -162 -67q-125 0 -204 93t-79 241q0 80 28 152t76 114q78 68 199 68q127 0 199 -76q42 -45 60 -128l-132 -3q-24 91 -128 91q-78 0 -123 -59.5t-45 -162.5q0 -97 45.5 -154.5t121.5 -57.5q64 0 100.5 36.5t37.5 102.5h-137v112z" glyph-name="G" horiz-adv-x="636" unicode="G"/>
<glyph d="M48 646h132v-264h244v264h132v-646h-132v269h-244v-269h-132v646z" glyph-name="H" horiz-adv-x="606" unicode="H"/>
<glyph d="M51 646h132v-646h-132v646z" glyph-name="I" horiz-adv-x="233" unicode="I"/>
<glyph d="M129 646h131v-491q0 -67 -6 -92q-17 -71 -141 -71q-10 0 -39 2q-36 2 -48 2l-27 1v110h51q15 0 42 4q22 3 30 16q6 10 6 34l1 67v418z" glyph-name="J" horiz-adv-x="310" unicode="J"/>
<glyph d="M49 646h132v-267l207 267h164l-217 -267l244 -379h-154l-170 278l-74 -91v-187h-132v646z" glyph-name="K" horiz-adv-x="566" unicode="K"/>
<glyph d="M50 646h131v-534h312v-112h-443v646z" glyph-name="L" horiz-adv-x="504" unicode="L"/>
<glyph d="M52 646h189l126 -428l129 428h187v-646h-125v438l-138 -438h-108l-135 437v-437h-125v646z" glyph-name="M" horiz-adv-x="734" unicode="M"/>
<glyph d="M50 646h160l266 -434v434h132v-646h-160l-267 440v-440h-131v646z" glyph-name="N" horiz-adv-x="659" unicode="N"/>
<glyph d="M321 656q131 0 213 -94.5t82 -245.5q0 -145 -83 -237.5t-213 -92.5q-133 0 -215.5 93t-82.5 242t83 242t216 93zM317 537q-75 0 -117 -58t-42 -161q0 -99 43 -157t117 -58q76 0 119 56.5t43 154.5q0 105 -43 164t-120 59z" glyph-name="O" horiz-adv-x="640" unicode="O"/>
<glyph d="M50 646h241q74 0 112 -10.5t70 -41.5q61 -57 61 -162q0 -103 -64 -159q-36 -31 -84 -40q-27 -5 -95 -5h-110v-228h-131v646zM181 535v-194h103q71 0 94 22q27 26 27 72q0 32 -16.5 58.5t-44 34t-96.5 7.5h-67z" glyph-name="P" horiz-adv-x="547" unicode="P"/>
<glyph d="M538 90l44 -22q11 -5 25 -11q9 -4 33 -14l-58 -112l-30 14q-72 34 -123 70q-46 -24 -110 -24q-131 0 -213.5 92.5t-82.5 238.5q0 150 82 243.5t213 93.5q134 0 216.5 -90.5t82.5 -238.5q0 -146 -79 -240zM321 546q-75 0 -120 -59.5t-45 -158.5q0 -104 43 -163t119 -59 q79 0 123 58t44 162q0 101 -44.5 160.5t-119.5 59.5z" glyph-name="Q" horiz-adv-x="647" unicode="Q"/>
<glyph d="M50 646h242q89 0 128.5 -10.5t69.5 -41.5q48 -49 48 -134q0 -101 -90 -140q20 -8 32.5 -19.5t17.5 -21.5q17 -35 22 -159q1 -33 4 -61.5t24 -58.5h-147q-3 13 -4 21q-4 25 -6 98q-3 82 -11 104q-3 13 -14 22.5t-22.5 11.5t-51.5 2h-111v-259h-131v646zM181 538v-169h110 q57 0 83 17q33 21 33 66t-32 70q-23 16 -85 16h-109z" glyph-name="R" horiz-adv-x="563" unicode="R"/>
<glyph d="M556 439l-136 -2q-2 28 -11 45q-28 54 -118 54q-52 0 -83 -21t-31 -56q0 -26 17 -39q22 -17 97 -26q156 -19 210 -64q61 -51 61 -136q0 -96 -70.5 -152t-191.5 -56q-122 0 -197 61.5t-79 165.5h139q3 -52 40 -81t101 -29q56 0 89 22.5t33 60.5q0 17 -9 31q-19 30 -92 40 q-120 16 -165 32q-53 19 -84.5 63t-31.5 100q0 90 67.5 144t179.5 54q119 0 190 -56.5t75 -154.5z" glyph-name="S" horiz-adv-x="585" unicode="S"/>
<glyph d="M3 646h471v-112h-169v-534h-132v534h-170v112z" glyph-name="T" horiz-adv-x="478" unicode="T"/>
<glyph d="M581 646v-335q0 -84 -7 -127q-14 -88 -86 -141.5t-175 -53.5q-148 0 -221 102q-31 44 -40 93q-7 40 -7 127v335h132v-379q0 -75 22 -109q35 -54 114 -54q92 0 124 71q12 28 12 92v379h132z" glyph-name="U" horiz-adv-x="628" unicode="U"/>
<glyph d="M435 646h141l-198 -646h-176l-202 646h143l148 -480z" glyph-name="V" horiz-adv-x="576" unicode="V"/>
<glyph d="M682 646h141l-170 -646h-156l-92 480l-102 -480h-155l-151 646h139l88 -472l106 472h154l95 -473z" glyph-name="W" horiz-adv-x="823" unicode="W"/>
<glyph d="M412 646h156l-199 -311l218 -335h-164l-128 219l-128 -219h-164l218 335l-198 311h158l114 -195z" glyph-name="X" horiz-adv-x="588" unicode="X"/>
<glyph d="M403 646h146l-208 -394v-252h-130v246l-211 400h150l126 -248z" glyph-name="Y" horiz-adv-x="550" unicode="Y"/>
<glyph d="M16 646h463v-108l-307 -426h332v-112h-495v106l305 428h-298v112z" glyph-name="Z" horiz-adv-x="511" unicode="Z"/>
<glyph d="M768 -1h-284l-11 17q-109 9 -181 47q-37 19 -67 49q-24 24 -24 35q0 7 12 7h209q-22 35 -22 96v209q0 32 8 38q5 4 17 4h443q63 0 102.5 -36.5t39.5 -94.5q0 -63 -44 -107q-32 -32 -109 -54l-7 -2q-6 -29 -18 -53h220q6 0 6 -7q0 -15 -38 -48q-32 -27 -83 -49.5 t-93 -26.5l-63 -7zM850 447v-179q-2 0 5 -1q40 0 70 30.5t30 70.5q0 80 -88 80q-9 0 -17 -1z" glyph-name="bracketleft" unicode="["/>
<glyph d="M1095 545l-186 -185q-20 -20 -54 -20q-22 0 -46 10l-100 -99l340 -348q11 -11 11 -18q0 -8 -14 -21l-63 -58q-6 -5 -13 -5q-5 0 -10 5l-6 6l-283 289q-4 5 -10 5t-15.5 -5.5t-13.5 -5.5q-5 0 -10 5l-32 32l-309 -307q-6 -6 -13 -6t-16 9l-63 63q-11 11 -11 20q0 5 2 7 l5 5l4 5l317 291l-275 281q-21 21 -21 54q0 36 24 60.5t59 24.5q36 0 66 -31l272 -277l106 96q-10 24 -10 42q0 37 44 76l176 154l31 -32l-152 -144l23 -24l156 140l31 -31l-149 -149l24 -24l153 143z" glyph-name="backslash" unicode="\"/>
<glyph d="M829 666l43 -164q10 -38 10 -71q0 -88 -54 -156q-50 -62 -150 -90v-283h135q24 0 24 -19v-24l-1 -8q0 -17 -18 -17h-374q-18 0 -22 8q-2 4 -2 16v21l1 11q0 9 12 12h145v283q-90 20 -147.5 88t-57.5 154q0 34 12 79l43 160h401z" glyph-name="bracketright" unicode="]"/>
<glyph d="M38 337q2 38 10 63q17 55 76.5 85t149.5 30q162 0 188 -101q8 -31 8 -114v-167q0 -58 5 -87q3 -20 17 -46h-134l-2 43q-58 -54 -145 -54q-89 0 -141 43t-52 117q0 84 62 120q42 25 144 41l62 10l50 10q15 3 15 14q0 72 -83 72q-59 0 -90 -30q-14 -13 -18 -49h-122z M349 233q-2 0 -4 -1q-11 -2 -52 -10l-65 -12q-42 -8 -59 -21t-17 -38q0 -64 82 -64q32 0 63 17q35 18 46 45q7 16 7 51v20q0 8 -1 13z" glyph-name="a" horiz-adv-x="510" unicode="a"/>
<glyph d="M165 659v-192q52 49 128 49q101 0 164.5 -73.5t63.5 -188.5q0 -118 -64.5 -191.5t-167.5 -73.5q-28 0 -58 8q-39 10 -72 40v-37h-119v659h125zM274 411q-54 0 -84 -38q-19 -24 -24 -61q-2 -16 -2 -66q0 -80 20 -110q28 -42 87 -42q57 0 90 42t33 115q0 76 -31.5 118 t-88.5 42z" glyph-name="b" horiz-adv-x="538" unicode="b"/>
<glyph d="M360 320q-19 87 -99 87q-55 0 -88 -42t-33 -112t34 -113.5t88 -43.5q77 0 98 83l125 -4q-8 -85 -67.5 -135.5t-151.5 -50.5q-114 0 -182 71.5t-68 192.5q0 118 67.5 189.5t177.5 71.5q95 0 155 -52t69 -142h-125z" glyph-name="c" horiz-adv-x="499" unicode="c"/>
<glyph d="M374 659h125v-659h-117l-1 37q-6 -4 -13.5 -10.5t-9.5 -8.5q-45 -29 -107 -29q-103 0 -167.5 73.5t-64.5 191.5t63.5 190t167.5 72q77 0 124 -47v190zM264 413q-56 0 -88 -43t-32 -117t33.5 -116.5t91.5 -42.5q57 0 87 41q15 21 18 52t3 75q0 80 -24 111q-31 40 -89 40z " glyph-name="d" horiz-adv-x="540" unicode="d"/>
<glyph d="M145 225q9 -126 120 -126q49 0 75 26q11 11 23 41l128 -5q-34 -172 -221 -172q-116 0 -184.5 71.5t-68.5 193.5q0 119 66 190.5t176 71.5q111 0 175 -72t64 -198q0 -12 -1 -21h-352zM151 321h214q-15 91 -106 91q-88 0 -108 -90v-1z" glyph-name="e" horiz-adv-x="517" unicode="e"/>
<glyph d="M199 500h105v-100h-105v-400h-126v400h-66v100h66v11q0 67 8 92q12 37 53 49q37 11 109 11h60v-104h-27q-46 0 -62 -5.5t-16 -31.5q0 -5 1 -8v-14z" glyph-name="f" horiz-adv-x="309" unicode="f"/>
<glyph d="M481 500v-441q0 -90 -22 -128q-47 -81 -206 -81q-102 0 -162.5 33.5t-66.5 123.5h129q5 -62 93 -62q67 0 94 27q19 19 19 72q0 12 -1 28q-47 -47 -125 -47q-98 0 -157 67t-59 177q0 111 60.5 178.5t160.5 67.5q76 0 123 -47v32h120zM359 267v6q0 140 -103 140 q-52 0 -83.5 -39t-31.5 -104t30.5 -104t80.5 -39q107 0 107 140z" glyph-name="g" horiz-adv-x="522" unicode="g"/>
<glyph d="M46 659h126v-200q52 52 132 52q82 0 131 -50q26 -27 36 -61t10 -113v-287h-125l-1 295q-2 48 -4 56q-2 15 -11 28q-20 29 -64 29q-31 0 -57.5 -18t-37.5 -46q-9 -23 -9 -87v-257h-126v659z" glyph-name="h" horiz-adv-x="514" unicode="h"/>
<glyph d="M46 658h126v-116h-126v116zM46 500h126v-500h-126v500z" glyph-name="i" horiz-adv-x="212" unicode="i"/>
<glyph d="M67 657h125v-116h-125v116zM67 500h125v-499q0 -36 -1 -53q-2 -39 -24 -64q-28 -33 -115 -33h-8q-1 0 -14 1q-17 0 -33 1q-4 0 -15 1v102h23q39 0 48 5q14 7 14 39v500z" glyph-name="j" horiz-adv-x="232" unicode="j"/>
<glyph d="M46 659h126v-355l163 196h157l-182 -207l216 -293h-152l-145 202l-57 -68v-134h-126v659z" glyph-name="k" horiz-adv-x="507" unicode="k"/>
<glyph d="M47 659h125v-659h-125v659z" glyph-name="l" horiz-adv-x="211" unicode="l"/>
<glyph d="M42 500h119v-46q49 59 127 59q100 0 131 -72q47 72 143 72q50 0 92.5 -23.5t60.5 -67.5q14 -34 14 -124v-298h-125v299q0 47 -8 70q-12 34 -57 34q-29 0 -52.5 -18t-31.5 -46q-7 -23 -7 -77v-262h-125l-1 298q-1 39 -2 48q-1 14 -7 26q-15 32 -53 32q-40 0 -67 -33 q-12 -15 -18 -36q-7 -24 -7 -82v-253h-126v500z" glyph-name="m" horiz-adv-x="764" unicode="m"/>
<glyph d="M44 500h125v-37l1 1q51 51 129 51q70 0 116 -32q27 -19 44 -48q24 -41 24 -125v-310h-125v284q0 33 -3 59q-8 65 -78 65q-51 0 -80 -35q-21 -25 -26 -69q-2 -17 -2 -75v-229h-125v500z" glyph-name="n" horiz-adv-x="518" unicode="n"/>
<glyph d="M258 514q110 0 178 -71.5t68 -187.5q0 -121 -65.5 -192.5t-177.5 -71.5t-178.5 70t-66.5 189t66.5 191.5t175.5 72.5zM260 409q-57 0 -90.5 -43.5t-33.5 -117.5q0 -70 34 -111.5t90 -41.5t88.5 41.5t32.5 114.5q0 72 -33 115t-88 43z" glyph-name="o" horiz-adv-x="524" unicode="o"/>
<glyph d="M45 500h121v-33q48 47 127 47q101 0 165 -73t64 -188q0 -118 -62.5 -190t-165.5 -72q-77 0 -123 46v-182h-126v645zM275 409q-65 0 -90 -51q-16 -31 -16 -119q0 -61 16 -93q25 -50 94 -50q56 0 87.5 41t31.5 114t-33 115.5t-90 42.5z" glyph-name="p" horiz-adv-x="540" unicode="p"/>
<glyph d="M496 500v-645h-125v182q-47 -46 -124 -46q-103 0 -165 71.5t-62 190.5q0 115 64 188t164 73q81 0 121 -40l7 -7v33h120zM266 409q-56 0 -89 -42.5t-33 -115.5t31.5 -114t86.5 -41q70 0 95 51q15 31 15 93q0 96 -21 129q-26 40 -85 40z" glyph-name="q" horiz-adv-x="540" unicode="q"/>
<glyph d="M43 500h122v-62q23 39 52 53.5t82 14.5q14 0 31 -1v-118h-25q-66 0 -96 -24q-26 -21 -33 -51t-7 -89v-223h-126v500z" glyph-name="r" horiz-adv-x="334" unicode="r"/>
<glyph d="M339 348q-9 67 -96 67q-85 0 -85 -53q0 -20 15 -29q19 -11 112.5 -19t139.5 -46t46 -111q0 -79 -58.5 -123.5t-162.5 -44.5q-142 0 -201 82q-23 31 -33 97h130q8 -77 108 -77q90 0 90 57q0 17 -7 25q-1 3 -5 6q-13 10 -32.5 12.5t-78.5 9.5q-114 14 -152 51t-38 97 q0 75 58 120t155 45q144 0 197 -91q16 -28 20 -75h-122z" glyph-name="s" horiz-adv-x="489" unicode="s"/>
<glyph d="M73 654h125v-154h107v-100h-107v-248q0 -34 10.5 -42.5t87.5 -8.5h8v-105l-36 -1q-36 -1 -44 -1q-27 0 -44 1q-61 4 -87 37q-12 16 -16 40t-4 114v214h-71v100h71v154z" glyph-name="t" horiz-adv-x="318" unicode="t"/>
<glyph d="M40 500h125v-324q0 -20 9 -42q16 -39 71 -39q65 0 92 60q11 24 11 89v256h126v-500h-122l-1 44q-53 -53 -133 -53q-56 0 -101 26q-48 28 -67 78q-10 27 -10 89v316z" glyph-name="u" horiz-adv-x="513" unicode="u"/>
<glyph d="M133 500l123 -351l116 351h134l-176 -500h-150l-179 500h132z" glyph-name="v" horiz-adv-x="508" unicode="v"/>
<glyph d="M140 500l81 -343l76 343h131l78 -341l81 341h139l-148 -500h-139l-76 337l-75 -337h-140l-146 500h138z" glyph-name="w" horiz-adv-x="727" unicode="w"/>
<glyph d="M163 500l83 -136l84 136h145l-159 -238l174 -262h-147l-97 159l-98 -159h-147l174 262l-158 238h146z" glyph-name="x" horiz-adv-x="492" unicode="x"/>
<glyph d="M138 500l115 -339l96 339h135l-182 -556q-19 -58 -41.5 -76t-70.5 -17l-116 2v104h24l48 1q27 1 34 10t15 36l-194 496h137z" glyph-name="y" horiz-adv-x="485" unicode="y"/>
<glyph d="M23 500h384v-104l-234 -290h247v-106h-406v101l234 296h-225v103z" glyph-name="z" horiz-adv-x="430" unicode="z"/>
<glyph d="M751 393l7 -79h-209l7 -79h330l146 -303l73 36l29 -64l-154 -74l-151 312h-360l-35 419q-6 72 -6 81q0 41 28.5 69t68.5 28q42 0 70.5 -28t28.5 -69q0 -40 -26.5 -67.5t-68.5 -30.5l13 -151h209zM815 105l68 -141q-42 -96 -121.5 -149.5t-179.5 -53.5q-135 0 -229.5 94.5 t-94.5 228.5q0 124 76 211q29 33 89 74l9 -103q-34 -33 -48 -54q-36 -55 -36 -126q0 -97 68.5 -165.5t165.5 -68.5q95 0 164.5 69t69.5 163v9q-1 7 -1 12z" glyph-name="braceleft" horiz-adv-x="1256" unicode="{"/>
<glyph d="M505 409h209l13 152q-43 3 -69 30t-26 68t28.5 68.5t70.5 27.5q40 0 68.5 -28t28.5 -68q0 -9 -6 -81l-35 -419h-360l-151 -313l-154 74l29 64l73 -35l146 303h330l7 79h-209zM441 122v-12q-1 -7 -1 -9q0 -95 69 -164t164 -69q98 0 166.5 69t68.5 166q0 69 -37 125 q-16 24 -47 54l9 104q58 -40 89 -75q76 -87 76 -210q0 -135 -94.5 -229t-229.5 -94q-100 0 -179.5 53.5t-121.5 148.5z" glyph-name="braceright" horiz-adv-x="1256" unicode="}"/>
<glyph glyph-name="nonbreakingspace" horiz-adv-x="193" unicode=" "/>
<glyph d="M490 419l-116 -1v8q0 52 -25 81t-69 29q-38 0 -64.5 -27t-26.5 -67q0 -43 18 -77h102v-99h-87q3 -21 3 -32q0 -22 -7 -52t-26 -70h286v-112h-420l1 109q19 28 26 45q17 41 17 82q0 13 -4 30h-74v99h58q-20 35 -20 95q0 82 61 136.5t153 54.5q100 0 157 -59.5t57 -164.5 v-8z" glyph-name="sterling" horiz-adv-x="551" unicode="£"/>
<glyph d="M43 110v295q0 44 30 73t75 29h1002q16 0 21 -3t10 -8q7 -10 7 -33v-22l10 -173q19 -11 19 -27v-163q0 -39 -31 -39h-142q4 12 4 26q0 44 -28.5 73.5t-70.5 29.5q-40 0 -67 -29t-27 -71q0 -13 6 -29h-406q8 16 8 31q0 41 -28.5 69.5t-69.5 28.5q-40 0 -68.5 -28t-28.5 -69 q0 -12 5 -32zM365 147q32 0 55 -22.5t23 -53.5q0 -32 -23 -55t-55 -23t-54.5 23t-22.5 55q0 31 22.5 53.5t54.5 22.5zM874 70q0 32 22.5 54.5t53.5 22.5q32 0 54.5 -22.5t22.5 -54.5t-22.5 -54.5t-54.5 -22.5t-54 22.5t-22 54.5zM330 74v-3q0 -38 36 -38q15 0 25.5 10.5 t10.5 26.5q0 15 -11 26t-26 11q-14 0 -24.5 -10t-10.5 -23zM914 69q0 -15 10.5 -25.5t26.5 -10.5q36 0 36 37q0 15 -10.5 26t-26.5 11q-14 0 -25 -11.5t-11 -26.5zM1067 113q0 -18 24 -18h27q14 0 17.5 5t3.5 21v285q0 21 -18 21h-32q-22 0 -22 -20v-294zM807 318l-1 -7 q0 -26 31 -26h154q27 0 27 33v84q0 25 -27 25h-157q-27 0 -27 -30v-79zM592 427q-25 0 -25 -25v-84q0 -24 11 -29q7 -4 23 -4h151q26 0 26 33v80q0 29 -30 29h-156zM329 318q0 -33 34 -33h143q32 0 32 33v83q0 26 -34 26h-141q-34 0 -34 -27v-82zM261 285q38 0 38 26v89 q0 27 -33 27h-117q-27 0 -44 -14.5t-17 -38.5v-56q0 -33 26 -33h147z" glyph-name="yen" unicode="¥"/>
<glyph d="M1050 685v-91h55v-59h-55v-571h55v-59h-55v-90h-55v90h-729v-90h-57v90h-57v59h57v571h-57v59h57v91h57v-91h729v91h55zM995 535h-729v-571h729v571zM837 400h27q69 0 69 -61v-260q0 -62 -66 -62h-30v383zM451 400h81v41q0 40 40 40h120q37 0 37 -33v-48h86v-383h-364 v383zM429 400v-383h-40q-57 0 -57 62v260q0 61 60 61h37zM684 400v37q0 11 -17 11h-68q-19 0 -19 -16v-32h104zM532 368l-48 -29v-138h99v138zM534 341q13 -2 13 -14q0 -13 -14 -13t-14 14q0 13 14 13h1z" glyph-name="section" unicode="§"/>
<glyph d="M225 373l181 180l-8 -387l485 485l142 -142l-485 -485l385 6l-180 -181l-520 2v522z" glyph-name="copyright" horiz-adv-x="1256" unicode="©"/>
<glyph d="M511 56h26q49 0 49 -44v-189q0 -44 -47 -44h-28v277zM242 56h57v29q0 30 29 30h86q27 0 27 -25v-34h57v-277h-256v277zM228 56v-277h-34q-41 0 -41 45v188q0 44 44 44h31zM354 669v52q56 -4 99.5 -47.5t45.5 -97.5h-51v-41h51q-6 -55 -46.5 -96t-98.5 -49v54h-40v-54 q-66 15 -103 54q-33 36 -43 91h52v41h-52q5 55 46.5 96t99.5 49v-52h40zM1004 696q34 0 59 -24.5t25 -58.5t-24.5 -58.5t-58.5 -24.5t-58.5 24.5t-24.5 58.5t24.5 58.5t57.5 24.5zM712 -221h-89v364q0 30 31 36l224 42q19 4 26 24l81 253q3 12 26 17l59 11q15 0 17 -17 l23 -257l-40 -172q-4 -19 -20 -19h-288q-9 0 -12 -19zM1075 25q20 0 20 -20v-45q0 -23 -14 -23h-287q-18 0 -18 24v44q0 20 25 20h274zM409 56v26q0 8 -9 8h-60q-7 0 -7 -8v-26h76zM299 33l-35 -21v-100h72v100zM423 653l-86 -73l-66 58l-26 -31l87 -74l112 97zM301 13 q9 0 9 -10q0 -9 -10 -9q-11 0 -11 9q0 10 11 10h1z" glyph-name="ordfeminine" horiz-adv-x="1256" unicode="ª"/>
<glyph d="M344 54h-91l-81 191l81 191h91l-81 -191zM218 0h-91l-100 245l100 245h91l-100 -245z" glyph-name="guillemotleft" horiz-adv-x="431" unicode="«"/>
<glyph d="M748 650l181 -181l-387 8l485 -485l-143 -142l-484 485l6 -386l-181 181l1 520h522z" glyph-name="logicalnot" unicode="¬"/>
<glyph d="M1124 341v-182h-113q-35 -136 -140 -219t-242 -83q-152 0 -262 98q-87 77 -121 204h-118v182h118q31 132 138 217t243 85q138 0 243 -82.5t141 -219.5h113zM883 341q-24 78 -96.5 129.5t-159.5 51.5q-93 0 -166 -57q-69 -54 -88 -124h510zM883 159h-511l2 -6 q22 -67 87 -117q75 -58 167 -58q87 0 160 52t95 129z" glyph-name="registered" horiz-adv-x="1256" unicode="®"/>
<glyph d="M489 -156l-16 -13l-2 -2q-2 -2 -4 -2t-6 3l-17 14l-14 -10q-6 -6 -12 -6q-5 0 -11 4q-37 31 -37 54q0 27 39 27h169q3 31 32 31q10 0 19 -8t9.5 -16.5t5.5 -8.5t7 8q7 25 34.5 43.5t57.5 18.5q41 0 69.5 -29t28.5 -71t-29.5 -72.5t-70.5 -30.5q-27 0 -54.5 18t-34.5 41 q-4 8 -8 8h-1q-2 0 -3 -3t-4 -8q-5 -18 -27 -18q-7 0 -15 4t-11 10q-1 2 -6 17q-4 9 -11 9q-4 0 -12 -8l-20 -21q-8 -8 -12 -8q-2 0 -7 3l-6 5zM1056 722v-706h-859v706h859zM798 -119q0 25 -26 25q-28 0 -28 -27q0 -26 27 -26t27 28zM1002 663h-751v-585h751v585zM831 532 h36q72 0 72 -64v-270q0 -64 -69 -64h-39v398zM444 532h81v42q0 42 42 42h124q39 0 39 -34v-50h81v-398h-367v398zM424 532v-398h-49q-60 0 -60 65v269q0 64 63 64h46zM683 532v34q0 11 -3 13.5t-15 2.5h-70l-6 -1h-4q-10 0 -10 -16v-33h108zM525 499l-49 -31v-143h102v143z M528 471q12 -2 12 -15q0 -14 -13 -14q-16 0 -16 15q0 14 15 14h2z" glyph-name="paragraph" unicode="¶"/>
<glyph d="M346 667v52q56 -5 99.5 -48.5t45.5 -97.5h-51v-41h51q-6 -56 -46.5 -96.5t-98.5 -47.5v53h-40v-53q-66 13 -103 53q-33 36 -43 91h52v41h-52q5 55 46.5 96.5t99.5 49.5v-52h40zM986 697q34 0 59 -24.5t25 -58.5t-24.5 -58.5t-58.5 -24.5t-58.5 24.5t-24.5 58.5t24 58.5 t58 24.5zM626 499q23 0 40 -16.5t17 -40.5q0 -23 -17 -40t-40 -17t-40.5 17.5t-17.5 40.5t17.5 39.5t40.5 16.5zM741 312l-41 -7l41 -57l6 -6q5 -5 5 -13q0 -11 -21 -18l-126 -42q-3 -1 -9 -1q-17 0 -17 18l-4 174q0 17 19 17q6 -1 5 -1l142 -38v-26zM592 -219l-8 256h-22 q-20 0 -20 16q0 1 1 3v3l26 70q7 19 23 24l35 11l141 -43l17 19l-44 60l196 64l-22 67l-141 -18l-6 39l188 142q4 3 11 9q11 8 26 12l51 13q4 1 9 1q17 0 18 -23l9 -205l-57 -207q-5 -19 -12 -24t-26 -5h-244q-15 0 -18 -16l-43 -268h-88zM1046 29q16 0 16 -22v-43 q0 -19 -6.5 -22t-17.5 -3h-270q-15 0 -15 13v61q0 16 21 16h272zM415 650l-86 -73l-66 58l-27 -31l88 -73l112 96z" glyph-name="ordmasculine" unicode="º"/>
<glyph d="M87 436h91l80 -191l-80 -191h-91l81 191zM213 490h91l100 -245l-100 -245h-91l100 245z" glyph-name="guillemotright" horiz-adv-x="431" unicode="»"/>
<glyph d="M397 736l59 -56h-81l-61 56h83zM296 736l-55 -56h-88l54 56h89zM227 646h164l202 -646h-125l-36 120h-254l-39 -120h-126zM306 526l-96 -304h191z" glyph-name="Acircumflex" horiz-adv-x="607" unicode="Â"/>
<glyph d="M276 -10q-118 20 -182.5 107.5t-64.5 228.5q0 155 78.5 244.5t214.5 89.5q110 0 181.5 -58.5t78.5 -154.5h-121q-27 108 -138 108q-79 0 -125.5 -62.5t-46.5 -166.5q0 -107 48 -170.5t129 -63.5q108 0 133 108h125q-6 -45 -21 -79q-28 -64 -90.5 -99t-147.5 -35h-22 l-8 -38q3 1 6 1q14 3 18 3q27 0 46 -18t19 -43q0 -28 -23 -46t-59 -18q-31 0 -60 10l10 33q20 -8 42 -8q41 0 41 32q0 31 -43 31q-13 0 -35 -8l-1 -1z" glyph-name="Ccedilla" horiz-adv-x="609" unicode="Ç"/>
<glyph d="M140 736h128l80 -53h-102zM58 646h441v-99h-322v-167h308v-100h-308v-181h333v-99h-452v646z" glyph-name="Egrave" horiz-adv-x="548" unicode="È"/>
<glyph d="M270 736h130l-98 -52h-107zM58 646h441v-99h-322v-167h308v-100h-308v-181h333v-99h-452v646z" glyph-name="Eacute" horiz-adv-x="548" unicode="É"/>
<glyph d="M367 736l59 -56h-82l-60 56h83zM266 736l-55 -56h-88l54 56h89zM58 646h441v-99h-322v-167h308v-100h-308v-181h333v-99h-452v646z" glyph-name="Ecircumflex" horiz-adv-x="548" unicode="Ê"/>
<glyph d="M25 736h126l37 -45h-116zM61 646h119v-646h-119v646z" glyph-name="Igrave" horiz-adv-x="239" unicode="Ì"/>
<glyph d="M190 736h128l80 -53h-101zM324 656q131 0 213 -94.5t82 -245.5q0 -145 -82.5 -237.5t-212.5 -92.5q-133 0 -215 93t-82 242q0 150 82 242.5t215 92.5zM321 550q-80 0 -125.5 -61.5t-45.5 -170.5q0 -104 46 -166t125 -62q81 0 128 60t47 164q0 110 -46.5 173t-128.5 63z " glyph-name="Ograve" horiz-adv-x="647" unicode="Ò"/>
<glyph d="M417 736l59 -56h-81l-61 56h83zM316 736l-55 -56h-88l54 56h89zM324 656q131 0 213 -94.5t82 -245.5q0 -145 -82.5 -237.5t-212.5 -92.5q-133 0 -215 93t-82 242q0 150 82 242.5t215 92.5zM321 550q-80 0 -125.5 -61.5t-45.5 -170.5q0 -104 46 -166t125 -62q81 0 128 60 t47 164q0 110 -46.5 173t-128.5 63z" glyph-name="Ocircumflex" horiz-adv-x="647" unicode="Ô"/>
<glyph d="M189 736h127l80 -53h-101zM583 646v-336q0 -86 -7 -129q-14 -86 -85.5 -139t-173.5 -53q-149 0 -221 101q-31 44 -39 91q-7 43 -7 129v336h119v-380q0 -80 24 -117q38 -59 124 -59q47 0 86.5 24t52.5 67q8 26 8 85v380h119z" glyph-name="Ugrave" horiz-adv-x="634" unicode="Ù"/>
<glyph d="M780 619l370 -369l-367 -369h-256l278 269h-686v200h686l-280 269h255z" glyph-name="germandbls" unicode="ß"/>
<glyph d="M134 606h127l80 -53h-101zM45 345q2 29 10 54q36 113 223 113q99 0 150 -41q27 -22 35.5 -56t8.5 -115v-171q0 -70 4 -90t13 -39h-117l-3 58q-50 -69 -156 -69q-87 0 -138 41.5t-51 114.5q0 82 60 116q39 22 144 40l65 11q51 9 61.5 13.5t10.5 18.5q0 24 -3 35 q-12 47 -89 47q-64 0 -98 -33q-15 -14 -20 -48h-110zM364 241q-10 -3 -67 -13q-101 -18 -126 -32t-25 -49q0 -34 24.5 -53.5t66.5 -19.5q70 0 110 51q18 23 18 72q0 14 -1 21v23z" glyph-name="agrave" horiz-adv-x="519" unicode="à"/>
<glyph d="M363 607l59 -56h-81l-60 56h82zM263 607l-55 -56h-88l53 56h90zM45 345q2 29 10 54q36 113 223 113q99 0 150 -41q27 -22 35.5 -56t8.5 -115v-171q0 -70 4 -90t13 -39h-117l-3 58q-50 -69 -156 -69q-87 0 -138 41.5t-51 114.5q0 82 60 116q39 22 144 40l65 11 q51 9 61.5 13.5t10.5 18.5q0 24 -3 35q-12 47 -89 47q-64 0 -98 -33q-15 -14 -20 -48h-110zM364 241q-10 -3 -67 -13q-101 -18 -126 -32t-25 -49q0 -34 24.5 -53.5t66.5 -19.5q70 0 110 51q18 23 18 72q0 14 -1 21v23z" glyph-name="acircumflex" horiz-adv-x="519" unicode="â"/>
<glyph d="M475 619h256l-280 -269h686v-200h-686l277 -269h-255l-367 369z" glyph-name="aring" unicode="å"/>
<glyph d="M445 456q62 56 160 56q109 0 172.5 -71.5t63.5 -195.5v-15h-362q11 -144 132 -144q54 0 82 29q12 13 23 39l116 -4q-16 -77 -73 -119t-145 -42q-107 0 -185 74q-53 -41 -98.5 -57.5t-104.5 -16.5q-96 0 -148 40.5t-52 115.5q0 83 59 116q39 22 145 40l64 11q51 9 62 13.5 t11 18.5q0 20 -4 35q-12 47 -89 47q-63 0 -98 -33q-15 -14 -20 -48h-110q4 35 10 54q17 54 76 83.5t148 29.5q55 0 104 -16q33 -11 61 -40zM365 241q-10 -3 -67 -13q-99 -18 -125 -32t-26 -49q0 -34 25 -53.5t67 -19.5q34 0 67.5 16.5t49.5 44.5q10 19 10 62v21v10 q-1 7 -1 13zM484 313h238q-16 109 -117 109q-100 0 -121 -109z" glyph-name="ae" horiz-adv-x="869" unicode="æ"/>
<glyph d="M235 -10l-3 1l-53 12q-67 15 -112 86t-45 162q0 117 67 188.5t176 71.5q92 0 151.5 -49.5t69.5 -133.5h-113q-10 36 -23 52q-29 37 -84 37q-60 0 -96.5 -45.5t-36.5 -120.5q0 -74 37.5 -121.5t95.5 -47.5q84 0 107 85l113 -4q-5 -40 -25 -74q-59 -101 -193 -101h-8 l-4 -31q11 3 22 3q23 0 38.5 -14t15.5 -34q0 -24 -20 -39.5t-49 -15.5q-21 0 -45 6l6 27q16 -5 30 -5q38 0 38 27q0 25 -34 25q-18 0 -29 -6l-3 -1z" glyph-name="ccedilla" horiz-adv-x="506" unicode="ç"/>
<glyph d="M146 606h127l80 -53h-101zM137 230q11 -144 131 -144q55 0 83 29q12 13 23 39l116 -4q-16 -76 -73.5 -118.5t-143.5 -42.5q-115 0 -182.5 71t-67.5 193q0 118 65 188.5t175 70.5q109 0 172.5 -71.5t63.5 -195.5v-15h-362zM142 313h238q-16 109 -118 109q-99 0 -120 -109z " glyph-name="egrave" horiz-adv-x="524" unicode="è"/>
<glyph d="M256 605h130l-98 -51h-107zM137 230q11 -144 131 -144q55 0 83 29q12 13 23 39l116 -4q-16 -76 -73.5 -118.5t-143.5 -42.5q-115 0 -182.5 71t-67.5 193q0 118 65 188.5t175 70.5q109 0 172.5 -71.5t63.5 -195.5v-15h-362zM142 313h238q-16 109 -118 109q-99 0 -120 -109 z" glyph-name="eacute" horiz-adv-x="524" unicode="é"/>
<glyph d="M358 607l59 -56h-81l-60 56h82zM258 607l-55 -56h-88l54 56h89zM137 230q11 -144 131 -144q55 0 83 29q12 13 23 39l116 -4q-16 -76 -73.5 -118.5t-143.5 -42.5q-115 0 -182.5 71t-67.5 193q0 118 65 188.5t175 70.5q109 0 172.5 -71.5t63.5 -195.5v-15h-362zM142 313 h238q-16 109 -118 109q-99 0 -120 -109z" glyph-name="ecircumflex" horiz-adv-x="524" unicode="ê"/>
<glyph d="M162 605h68v-51h-68v51zM302 605h67v-51h-67v51zM137 230q11 -144 131 -144q55 0 83 29q12 13 23 39l116 -4q-16 -76 -73.5 -118.5t-143.5 -42.5q-115 0 -182.5 71t-67.5 193q0 118 65 188.5t175 70.5q109 0 172.5 -71.5t63.5 -195.5v-15h-362zM142 313h238 q-16 109 -118 109q-99 0 -120 -109z" glyph-name="edieresis" horiz-adv-x="524" unicode="ë"/>
<glyph d="M67 619h88l49 -78h-45l-48 78l-48 -78h-44zM56 496h112v-496h-112v496z" glyph-name="icircumflex" horiz-adv-x="218" unicode="î"/>
<glyph d="M6 605h68v-51h-68v51zM146 605h67v-51h-67v51zM56 496h112v-496h-112v496z" glyph-name="idieresis" horiz-adv-x="218" unicode="ï"/>
<glyph d="M355 607l59 -56h-88l-54 56h83zM255 607l-56 -56h-87l53 56h90zM261 511q109 0 176.5 -71t67.5 -187q0 -121 -65 -191.5t-176 -70.5q-112 0 -177.5 69.5t-65.5 187.5q0 119 65.5 191t174.5 72zM263 419q-61 0 -97.5 -47t-36.5 -126q0 -75 36.5 -120t97.5 -45t96.5 45 t35.5 123q0 77 -36 123.5t-96 46.5z" glyph-name="ocircumflex" horiz-adv-x="530" unicode="ô"/>
<glyph d="M1117 -240h-976v745h138l1 -606h698v606h139v-745zM629 114l-225 225v166l163 -168v403h125v-403l163 166v-164z" glyph-name="divide" horiz-adv-x="1256" unicode="÷"/>
<glyph d="M1213 110l-230 -71q4 16 4 32q0 40 -28 68.5t-68 28.5q-41 0 -69.5 -28.5t-28.5 -69.5q0 -17 7 -31h-405q6 16 6 29q0 42 -27.5 71t-67.5 29q-41 0 -70 -29.5t-29 -71.5q0 -11 4 -28h-141q-31 0 -31 39v163q0 17 19 27l9 195q0 23 8.5 33.5t29.5 10.5h1002q45 0 75 -29 t30 -73zM890 147q32 0 54.5 -22t22.5 -54t-22.5 -55t-54.5 -23t-54.5 23t-22.5 55q0 31 22.5 53.5t54.5 22.5zM381 70q0 -32 -22 -54.5t-54 -22.5t-54.5 22.5t-22.5 54.5t23 54.5t55 22.5q31 0 53 -22.5t22 -54.5zM926 74q-4 33 -36 33q-15 0 -25.5 -11t-10.5 -26t10.5 -26 t24.5 -11q16 0 26.5 11t10.5 27v3zM342 69q0 15 -11 26.5t-26 11.5q-16 0 -26.5 -11t-10.5 -26q0 -37 37 -37q15 0 26 10.5t11 25.5zM116 121q0 -16 3.5 -21t17.5 -5h27q25 0 25 18v294q0 20 -22 20h-32q-19 0 -19 -21v-285zM238 318q0 -33 26 -33h154q31 0 31 26v86 q0 30 -28 30h-156q-27 0 -27 -25v-84zM508 427q-31 0 -31 -29v-80q0 -33 27 -33h150q24 0 29 8t5 25v84q0 25 -25 25h-155zM893 285q33 0 33 33v82q0 27 -34 27h-141q-34 0 -34 -26v-83q0 -33 32 -33h144zM957 311q0 -26 38 -26h138q21 0 27.5 6.5t6.5 26.5v56q0 53 -61 53 h-117q-32 0 -32 -27v-89z" glyph-name="oslash" unicode="ø"/>
<glyph d="M149 606h128l80 -53h-102zM47 496h112v-280q0 -13 1 -27v-16q0 -25 9 -46q20 -46 79 -46q72 0 102 66q13 28 13 95v254h112v-496h-109l-1 57q-19 -23 -39 -37q-44 -30 -105 -30q-98 0 -147 70q-27 39 -27 121v315z" glyph-name="ugrave" horiz-adv-x="520" unicode="ù"/>
<glyph d="M356 607l59 -56h-81l-61 56h83zM256 607l-55 -56h-89l54 56h90zM47 496h112v-280q0 -13 1 -27v-16q0 -25 9 -46q20 -46 79 -46q72 0 102 66q13 28 13 95v254h112v-496h-109l-1 57q-19 -23 -39 -37q-44 -30 -105 -30q-98 0 -147 70q-27 39 -27 121v315z" glyph-name="ucircumflex" horiz-adv-x="520" unicode="û"/>
<glyph d="M158 605h67v-51h-67v51zM298 605h67v-51h-67v51zM47 496h112v-280q0 -13 1 -27v-16q0 -25 9 -46q20 -46 79 -46q72 0 102 66q13 28 13 95v254h112v-496h-109l-1 57q-19 -23 -39 -37q-44 -30 -105 -30q-98 0 -147 70q-27 39 -27 121v315z" glyph-name="udieresis" horiz-adv-x="520" unicode="ü"/>
</font>
</defs>
</svg>
